<svg version="1.1" xmlns="http://www.w3.org/2000/svg" xmlns:xlink="http://www.w3.org/1999/xlink" width="34.28951" height="102.86851" viewBox="0,0,34.28951,102.86851"><g transform="translate(-222.85525,-136.80414)"><g data-paper-data="{&quot;isPaintingLayer&quot;:true}" fill-rule="nonzero" stroke="none" stroke-linecap="butt" stroke-linejoin="miter" stroke-miterlimit="10" stroke-dasharray="" stroke-dashoffset="0" style="mix-blend-mode: normal"><path d="M248.32875,188.2229c0,2.5 -2.5,2.5 -2.5,2.5l-2.17945,-0.02513c-0.85208,-0.12172 -1.70416,-0.24345 -2.55624,-0.36517c0,0 -2.47487,-0.35356 -2.12132,-2.82843c0.35356,-2.47487 2.82842,-2.12132 2.82842,-2.12132c0.85208,0.12172 1.70417,0.24346 2.55625,0.36518l1.47234,-0.02513c0,0 2.5,0 2.5,2.5z" fill="#80e88a" stroke-width="0.5"/><path d="M244.00416,168.19622c1.76776,-1.76776 3.53554,0 3.53554,0c3.70079,3.73277 8.0596,10.21952 4.3442,15.54798c-3.75593,5.3866 -13.8921,4.39108 -17.03092,-1.19187c-3.02289,-5.37674 2.69308,-12.64657 8.39086,-12.3253c-0.09171,-0.59859 0.04422,-1.31471 0.76032,-2.03081z" data-paper-data="{&quot;index&quot;:null}" fill="#8dff99" stroke-width="0.5"/><path d="M222.85525,239.67265v-102.86851h34.28951v102.86851z" fill="#9966ff" stroke-width="0"/></g></g></svg>