<svg version="1.1" xmlns="http://www.w3.org/2000/svg" xmlns:xlink="http://www.w3.org/1999/xlink" width="46.53021" height="120.53281" viewBox="0,0,46.53021,120.53281"><g transform="translate(-216.73489,-119.7336)"><g data-paper-data="{&quot;isPaintingLayer&quot;:true}" fill-rule="nonzero" stroke="none" stroke-width="0.5" stroke-linecap="butt" stroke-linejoin="miter" stroke-miterlimit="10" stroke-dasharray="" stroke-dashoffset="0" style="mix-blend-mode: normal"><path d="M243.17748,141.56922c0,2.5 -2.5,2.5 -2.5,2.5l-2.17945,-0.02513c-0.85208,-0.12172 -1.70416,-0.24345 -2.55624,-0.36517c0,0 -2.47487,-0.35356 -2.12132,-2.82843c0.35356,-2.47487 2.82842,-2.12132 2.82842,-2.12132c0.85208,0.12172 1.70417,0.24346 2.55625,0.36518l1.47234,-0.02513c0,0 2.5,0 2.5,2.5z" fill="#80e88a"/><path d="M238.85289,121.54254c1.76776,-1.76776 3.53554,0 3.53554,0c3.70079,3.73277 8.0596,10.21952 4.3442,15.54798c-3.75593,5.3866 -13.8921,4.39108 -17.03092,-1.19187c-3.02289,-5.37674 2.69308,-12.64657 8.39086,-12.3253c-0.09171,-0.59859 0.04422,-1.31471 0.76032,-2.03081z" data-paper-data="{&quot;index&quot;:null}" fill="#8dff99"/><path d="M244.27244,129.09691l-0.42027,-0.0193c-3.48334,0.4353 -7.32566,1.13287 -9.40188,-1.12274l-2.05537,1.16174c-0.37195,0.21953 -0.80571,0.34549 -1.26889,0.34549c-1.38071,0 -2.5,-1.11929 -2.5,-2.5c0,-0.88153 0.45625,-1.6565 1.14551,-2.10163l2.15881,-1.43921l0.10387,0.15581l0.13416,-0.07583c0.1848,-0.16086 0.38246,-0.30782 0.5957,-0.43792c0.44974,-0.2744 0.84359,-0.45926 1.19309,-0.57167c1.96752,-0.92208 3.73624,-2.64587 5.90561,-2.75396c3.36277,-0.16755 2.5778,4.88144 4.84881,2.22286c0,0 2.08013,-1.38675 3.46688,0.69338c1.38675,2.08013 -0.69338,3.46688 -0.69338,3.46688c-0.243,0.13077 -0.47913,0.28955 -0.71268,0.45879c0.00002,0.00576 0.00004,0.01154 0.00004,0.01733c0,2.5 -2.5,2.5 -2.5,2.5z" data-paper-data="{&quot;index&quot;:null}" fill="#5aa562"/><path d="M233.3623,142.38095c0.04468,0.0065 0.08921,0.01281 0.13361,0.01892l0.3472,0.00467c0,0 0.22803,0.01069 0.54304,0.09452c3.11311,0.26462 5.64163,-0.38479 8.85921,-0.84847l0.11687,-0.00409c0.67784,-0.60126 1.5839,-0.67051 1.5839,-0.67051l2.3492,-0.13088c3.91942,0.47699 8.70948,0.16083 11.8034,3.03921c4.67523,4.34953 3.39308,10.21599 3.49215,15.70629c0.09679,5.36393 2.19806,8.06813 -1.54786,13.18806c-2.61505,3.57424 -8.53865,4.75763 -11.30307,0.22709c-0.27356,-0.44833 0.87974,-6.19315 -0.18306,-6.78332c-0.7093,-0.39388 -1.49792,0.62815 -2.21931,0.99942c-2.06112,2.0254 0.21194,5.34207 0.75046,7.76729c0.98265,4.42538 1.58926,12.27955 -0.53351,16.3718c-2.42049,4.6662 -7.32616,5.03924 -11.83906,3.87185c-1.28975,-0.33363 -2.83683,-0.38417 -3.76552,-1.33931c-1.7336,-1.78297 -1.5279,-4.7756 -1.58254,-6.98558c-0.1146,-4.63439 -0.52429,-9.25518 -0.5389,-13.87654c0.21219,-1.74348 0.13509,-3.51166 0.29118,-5.26103c-0.57294,1.72971 -1.33315,4.29491 -1.85247,4.79837c-3.6984,3.58533 -7.83074,2.36816 -11.07221,-1.81017c-1.30026,-1.67606 0.54181,-4.20786 0.79808,-6.31361c0.97325,-7.99716 1.48056,-15.50582 7.58913,-21.28953c0,0 1.68613,-1.58647 3.33989,-0.08343c0.66463,-0.28805 1.34925,-0.52503 2.04181,-0.70613l1.67823,0.02256c0.41318,-0.0513 0.72018,-0.00745 0.72018,-0.00745z" fill="#d7e824"/><path d="M233.33182,192.46285l1.65461,0.51755c2.22034,1.33064 5.47667,2.23316 8.09472,1.31182c1.9445,-0.6843 4.63383,-3.47818 6.89022,-2.09552c0.4667,0.28598 1.30814,7.60466 1.85083,8.94681c0.52466,1.29754 1.16166,8.34981 1.62141,9.43145c1.75994,4.14058 0.80185,19.3452 -0.60141,23.22156c-1.08589,2.07356 -1.1138,5.28123 -3.25768,6.22069c-3.43693,1.50608 -6.94154,-4.21642 -7.51223,-6.40461c-0.17668,-0.67743 0.48384,-4.69269 0.52905,-5.69673c0.20073,-4.45711 0.55924,-9.12152 0.11655,-13.58366c-0.0746,-0.75193 -0.03807,-6.26207 -2.77326,-4.11406c-0.30754,0.24152 0.36564,0.72173 0.37159,1.11272c0.04077,2.68246 -0.51181,2.67255 -0.96351,5.21447c-0.18134,1.02048 -0.22782,2.06037 -0.34315,3.09039c-0.28442,2.54037 -0.57449,5.08012 -0.86173,7.62017c-0.53816,4.49521 -4.25578,14.85348 -10.83711,8.15716c-1.21763,-1.23891 0.36907,-6.85523 0.07077,-8.7514c-0.31338,-1.99205 -1.15788,-3.90949 -1.2216,-5.92503c-0.13867,-4.38642 1.26104,-8.88732 1.48046,-13.27262c0.22346,-4.46609 0.30425,-8.06163 1.51187,-12.2361c-0.09498,-0.37786 -0.09659,-0.83046 0.05709,-1.36943c0.47125,-1.65278 1.75475,-1.84537 2.51101,-1.80432c0.31447,-0.01731 0.66967,0.02937 1.06916,0.16677c0.20346,0.06998 0.38339,0.15145 0.54233,0.24191z" fill="#2527e8"/></g></g></svg>