<svg version="1.1" xmlns="http://www.w3.org/2000/svg" xmlns:xlink="http://www.w3.org/1999/xlink" width="59" height="41.5567" viewBox="0,0,59,41.5567"><g transform="translate(-215.20645,-314.36072)"><g data-paper-data="{&quot;isPaintingLayer&quot;:true}" fill-rule="nonzero" stroke="none" stroke-linecap="butt" stroke-linejoin="miter" stroke-miterlimit="10" stroke-dasharray="" stroke-dashoffset="0" style="mix-blend-mode: normal"><path d="M215.20645,355.91742v-41.5567h59v41.5567z" fill="#aebb8d" stroke-width="0"/><path d="M264.47449,332.45221c-1.38322,0 -1.5082,-0.74108 -1.5195,-0.875c-1.96092,-1.09277 -4.07125,-1.88846 -6.16754,-2.92649c-1.05204,-0.52094 -1.69789,-1.27399 -2.59476,-1.88742c-1.20764,-0.82598 -2.95148,-1.33125 -4.2205,-2.12466c-1.03126,-0.64475 -1.4109,-1.565 -2.06989,-2.36124c-0.81169,-0.98074 -2.29626,-1.51346 -3.44663,-2.32432c-1.3542,-0.95454 -2.08933,-1.48519 -4.33742,-1.54069c-1.30433,0.94212 -2.87062,1.97103 -4.48384,2.73116c-0.53224,0.25078 -1.23159,0.3733 -1.71356,0.65718c-0.48196,0.28387 -0.68998,0.69577 -1.11578,1.00926c-1.06899,0.78702 -2.57913,1.36492 -3.64948,2.14948c-0.98187,0.7197 -1.4838,1.62816 -2.31543,2.41078c-1.27674,1.20148 -2.49346,2.24116 -3.57701,3.50511c-1.35746,1.58347 -1.44997,3.23578 -3.142,4.76053c0,0 -0.84349,0.7452 -2.10872,0.2484c-1.26523,-0.4968 -0.42175,-1.242 -0.42175,-1.242c2.28284,-1.96727 2.75085,-4.62751 4.78428,-6.72557c4.26915,-4.40482 10.244,-7.78498 16.57945,-11.1592c1.14027,-0.01189 2.32222,-0.216 3.42081,-0.03568c3.24339,0.53236 2.79889,0.95191 4.40672,2.07746c1.35598,0.94924 2.85111,1.53634 3.85234,2.69114c0.55326,0.63812 0.72243,1.42931 1.57959,1.93773c1.33019,0.78899 3.05383,1.33649 4.29497,2.17431c0.80343,0.54235 1.32838,1.23713 2.27122,1.69505c2.32035,1.12697 4.6361,2.01091 6.76965,3.26753l0.44538,0.99155c0,0 0,0.89562 -1.52062,0.89562z" fill="#8bba13" stroke-width="0.5"/><path d="M268.96746,341.61623c-1.26523,0.4968 -2.10872,-0.2484 -2.10872,-0.2484l-0.96941,-0.90632c-4.4703,-1.28546 -8.71392,-2.98117 -12.22204,-5.0474c-0.18643,-0.1098 -2.51953,-1.47918 -2.59134,-1.54261c-1.54629,-1.36573 -1.61022,-2.6563 -2.59003,-4.10207c-0.68639,-1.01282 -1.1824,-0.78608 -2.61467,-1.46094c-1.35768,-0.63972 -1.36996,-1.33776 -3.10788,-1.2367c-3.6804,0.4896 -6.45742,3.01254 -8.74179,4.69437c-2.72876,2.00899 -4.97105,4.09574 -7.15973,6.33017c-0.65572,0.66943 -1.78311,1.1486 -2.45467,1.81255c-0.34592,0.342 -0.23501,0.82197 -0.66817,1.12757c-1.06632,0.75227 -2.63411,1.20627 -3.80784,1.90085c0,0 -1.07524,0.6333 -2.15048,0c-1.07524,-0.6333 0,-1.2666 0,-1.2666c1.06523,-0.62478 2.52999,-1.00079 3.49113,-1.68162c0.38779,-0.2747 0.2347,-0.71613 0.54832,-1.02192c0.66405,-0.64747 1.77921,-1.11145 2.41131,-1.76992c3.17285,-3.30524 6.62029,-6.44941 11.18841,-9.13995c1.08326,-0.63802 2.6235,-1.89928 3.97552,-2.29556c0.92508,-0.27114 1.9976,-0.31186 2.9964,-0.46779c0.86415,0.02049 1.78498,-0.12098 2.59245,0.06147c0.71742,0.16211 1.15149,0.5997 1.70982,0.91064c1.69326,0.94302 3.55352,1.44478 4.57312,2.7787c0.98091,1.28331 0.89779,2.56137 2.27595,3.77937c0.59103,0.52235 1.52104,0.87951 2.27464,1.32337c3.51729,2.07162 7.75903,3.56575 12.10785,4.98353l1.46358,1.24317c0,0 0.84349,0.7452 -0.42175,1.242z" fill="#8bba13" stroke-width="0.5"/><path d="M267.98272,350.10227c-1.07524,0.6333 -2.15048,0 -2.15048,0l-0.89046,-0.57042c-0.76632,-0.10618 -1.58164,-0.12751 -2.29896,-0.31856c-2.41773,-0.64392 -3.51955,-1.99153 -5.32605,-3.05174c-0.47684,-0.27985 -3.12085,-1.83645 -3.19959,-1.90085c-0.5298,-0.43339 -0.71874,-0.98661 -1.21649,-1.43299c-0.93997,-0.84295 -2.80186,-1.33445 -3.70941,-2.20231c-0.33623,-0.32153 -0.28103,-0.75 -0.60825,-1.07474c-0.25879,-0.25683 -0.78161,-0.38659 -1.09894,-0.61954c-1.1872,-0.87152 -1.96197,-1.85652 -3.27296,-2.67193c-1.75883,-0.38509 -1.75443,0.01139 -3.10249,0.64726c-0.53202,0.25095 -1.22883,0.37494 -1.71356,0.65718c-1.00458,0.58492 -1.45135,1.4336 -2.33227,2.084c-1.25814,0.92892 -2.38323,1.93536 -3.64948,2.86598c-0.67568,0.49659 -1.77169,0.78611 -2.31543,1.33603c-0.29794,0.30133 -0.27028,0.6857 -0.53577,0.99738c-0.99015,1.16242 -2.70975,2.59371 -4.13678,3.57537c-0.63403,0.43615 -1.50146,0.74907 -2.07811,1.21203c-0.9127,0.73274 -1.51126,1.6101 -2.59134,2.2591c0,0 -1.07524,0.6333 -2.15048,0c-1.07524,-0.6333 0,-1.2666 0,-1.2666c0.98954,-0.56753 1.45628,-1.38455 2.27464,-2.03987c0.6237,-0.49945 1.53736,-0.85065 2.22285,-1.32116c1.28152,-0.87961 2.84336,-2.16109 3.72722,-3.20587c0.30789,-0.36395 0.31971,-0.8055 0.68073,-1.1521c0.45712,-0.43887 1.96153,-1.09541 2.55055,-1.52995c1.26447,-0.93284 2.38431,-1.93738 3.64948,-2.86598c0.55561,-0.4078 1.99842,-1.89674 2.53371,-2.21497c0.54933,-0.32657 1.32623,-0.48879 1.93592,-0.77581c1.56888,-0.73857 1.44885,-1.27774 4.00529,-1.27774c0.91798,0 1.74945,0.328 2.62418,0.49201c1.67001,0.95455 2.59759,2.00541 4.02601,3.06003c0.39916,0.2947 1.00239,0.49102 1.33405,0.81345c0.33223,0.32297 0.28619,0.74821 0.60825,1.07474c0.79789,0.80897 2.68872,1.31131 3.58956,2.09666c0.50759,0.44252 0.69254,0.99714 1.21649,1.43299c0.78154,0.65012 1.92813,1.11741 2.88289,1.68162c1.30074,0.76866 2.63492,2.26191 4.40591,2.68022c0.82124,0.19398 1.71135,0.26529 2.56702,0.39794l1.54253,0.86257c0,0 1.07524,0.6333 0,1.2666z" fill="#8bba13" stroke-width="0.5"/><path d="M258.25076,352.96825c-1.07524,0.6333 -2.15048,0 -2.15048,0l-0.60825,-0.35825c-0.9495,-0.56369 -1.70125,-1.23215 -2.53371,-1.85672c-1.04664,-0.78526 -1.34359,-0.60812 -2.82934,-1.30818c-1.33338,-0.62827 -2.64473,-1.57227 -4.09312,-2.08025c-0.50869,-0.17841 -1.16498,-0.15829 -1.69339,-0.31556c-1.5176,-0.45168 -2.23247,-1.06258 -4.0067,-0.40094c-2.03543,0.75905 -3.05299,2.32785 -4.48946,3.38843c-1.25645,0.92767 -2.42581,1.79275 -3.56021,2.79497c0,0 -0.84349,0.7452 -2.10872,0.2484c-1.26523,-0.4968 -0.42175,-1.242 -0.42175,-1.242c1.1839,-1.04595 2.42042,-1.96937 3.73876,-2.93699c1.66184,-1.21974 2.82156,-2.94795 5.2425,-3.77652c1.24575,-0.42636 3.46264,-0.7026 4.88957,-0.45358c0.7774,0.13567 1.3257,0.55707 2.05218,0.76914c0.61858,0.18057 1.36507,0.19077 1.95609,0.40094c1.57047,0.55844 2.9823,1.5402 4.42235,2.21872c1.09131,0.51421 2.37151,0.91911 3.25314,1.5578c0.78749,0.57048 1.44543,1.20832 2.33227,1.72576l0.60825,0.35825c0,0 1.07524,0.6333 0,1.2666z" fill="#8bba13" stroke-width="0.5"/></g></g></svg>