<svg version="1.1" xmlns="http://www.w3.org/2000/svg" xmlns:xlink="http://www.w3.org/1999/xlink" width="480.5" height="259.50002" viewBox="0,0,480.5,259.50002"><g transform="translate(3.14999,-1.65)"><g data-paper-data="{&quot;isPaintingLayer&quot;:true}" fill-rule="nonzero" stroke-linecap="butt" stroke-linejoin="miter" stroke-miterlimit="10" stroke-dasharray="" stroke-dashoffset="0" style="mix-blend-mode: normal"><path d="M8.45247,235.90003c0,-7.53733 6.11021,-13.64754 13.64754,-13.64754c7.53733,0 13.64754,6.11021 13.64754,13.64754c0,7.53733 -6.11021,13.64754 -13.64754,13.64754c-7.53733,0 -13.64754,-6.11021 -13.64754,-13.64754z" fill="#4245f4" stroke="#000000" stroke-width="0"/><path d="M-0.39999,235.90003c0,-12.42641 10.07359,-22.5 22.5,-22.5c12.42641,0 22.5,10.07359 22.5,22.5c0,12.42641 -10.07359,22.5 -22.5,22.5c-12.42641,0 -22.5,-10.07359 -22.5,-22.5z" fill="none" stroke="#4245f4" stroke-width="5.5"/><path d="M304.45247,180.90003c0,-7.53733 6.11021,-13.64754 13.64754,-13.64754c7.53733,0 13.64754,6.11021 13.64754,13.64754c0,7.53733 -6.11021,13.64754 -13.64754,13.64754c-7.53733,0 -13.64754,-6.11021 -13.64754,-13.64754z" fill="#4245f4" stroke="#000000" stroke-width="0"/><path d="M295.60001,180.90003c0,-12.42641 10.07359,-22.5 22.5,-22.5c12.42641,0 22.5,10.07359 22.5,22.5c0,12.42641 -10.07359,22.5 -22.5,22.5c-12.42641,0 -22.5,-10.07359 -22.5,-22.5z" fill="none" stroke="#4245f4" stroke-width="5.5"/><path d="M438.45247,26.90001c0,-7.53733 6.11021,-13.64754 13.64754,-13.64754c7.53733,0 13.64754,6.11021 13.64754,13.64754c0,7.53733 -6.11021,13.64754 -13.64754,13.64754c-7.53733,0 -13.64754,-6.11021 -13.64754,-13.64754z" fill="#4245f4" stroke="#000000" stroke-width="0"/><path d="M429.60001,26.9c0,-12.42641 10.07359,-22.5 22.5,-22.5c12.42641,0 22.5,10.07359 22.5,22.5c0,12.42641 -10.07359,22.5 -22.5,22.5c-12.42641,0 -22.5,-10.07359 -22.5,-22.5z" fill="none" stroke="#4245f4" stroke-width="5.5"/></g></g></svg>