<svg version="1.1" xmlns="http://www.w3.org/2000/svg" xmlns:xlink="http://www.w3.org/1999/xlink" width="27.20469" height="115.62017" viewBox="0,0,27.20469,115.62017"><g transform="translate(-226.39765,-122.18992)"><g data-paper-data="{&quot;isPaintingLayer&quot;:true}" fill-rule="nonzero" stroke="none" stroke-width="0.5" stroke-linecap="butt" stroke-linejoin="miter" stroke-miterlimit="10" stroke-dasharray="" stroke-dashoffset="0" style="mix-blend-mode: normal"><path d="M242.73201,144.02554c0,2.5 -2.5,2.5 -2.5,2.5l-2.17945,-0.02513c-0.85208,-0.12172 -1.70416,-0.24345 -2.55624,-0.36517c0,0 -2.47487,-0.35356 -2.12132,-2.82843c0.35356,-2.47487 2.82842,-2.12132 2.82842,-2.12132c0.85208,0.12172 1.70417,0.24346 2.55625,0.36518l1.47234,-0.02513c0,0 2.5,0 2.5,2.5z" fill="#80e88a"/><path d="M238.40742,123.99886c1.76776,-1.76776 3.53554,0 3.53554,0c3.70079,3.73277 8.0596,10.21952 4.3442,15.54798c-3.75593,5.3866 -13.8921,4.39108 -17.03092,-1.19187c-3.02289,-5.37674 2.69308,-12.64657 8.39086,-12.3253c-0.09171,-0.59859 0.04422,-1.31471 0.76032,-2.03081z" data-paper-data="{&quot;index&quot;:null}" fill="#8dff99"/><path d="M243.82697,131.55323l-0.42027,-0.0193c-3.48334,0.4353 -7.32566,1.13287 -9.40188,-1.12274l-2.05537,1.16174c-0.37195,0.21953 -0.80571,0.34549 -1.26889,0.34549c-1.38071,0 -2.5,-1.11929 -2.5,-2.5c0,-0.88153 0.45625,-1.6565 1.14551,-2.10163l2.15881,-1.43921l0.10387,0.15581l0.13416,-0.07583c0.1848,-0.16086 0.38246,-0.30782 0.5957,-0.43792c0.44974,-0.2744 0.84359,-0.45926 1.19309,-0.57167c1.96752,-0.92208 3.73624,-2.64587 5.90561,-2.75396c3.36277,-0.16755 2.5778,4.88144 4.84881,2.22286c0,0 2.08013,-1.38675 3.46688,0.69338c1.38675,2.08013 -0.69338,3.46688 -0.69338,3.46688c-0.243,0.13077 -0.47913,0.28955 -0.71268,0.45879c0.00002,0.00576 0.00004,0.01154 0.00004,0.01733c0,2.5 -2.5,2.5 -2.5,2.5z" data-paper-data="{&quot;index&quot;:null}" fill="#5aa562"/><path d="M234.39462,144.89694c0.86214,-0.36402 1.77688,-0.10267 1.77688,-0.10267c3.08774,0.89002 6.01169,0.74595 8.44433,3.25419c3.26209,3.36346 4.74234,8.87814 5.91689,13.17546c2.01536,7.37358 4.92341,17.56225 1.46305,25.00203c-1.26324,2.71596 -3.72218,4.67017 -5.79665,6.72687c-4.51856,2.97703 -12.42553,5.66009 -16.15571,0.06482c-1.95096,-2.92645 -2.42898,-8.50682 -2.87945,-11.89133c-0.44397,-3.3357 -0.03035,-6.07729 -0.02176,-9.41917c0.00666,-2.59515 -0.88219,-3.27201 -0.72617,-6.03566c0.05946,-1.05333 0.6111,-2.02966 0.74454,-3.07619c0.76608,-6.00798 -0.56524,-11.01969 2.95739,-16.41878l2.38509,-1.35014c0,0 0.98107,-0.32702 1.89156,0.07057z" fill="#d7e824"/><path d="M233.16736,156.87786c-0.26004,-0.67011 -0.56414,-2.10209 1.0311,-3.05923c2.14373,-1.28624 3.42997,0.85749 3.42997,0.85749l0.17699,0.29592c0.67238,0.135 1.24721,0.53975 1.60681,1.09655l1.4392,2.15881l-0.08711,0.05808l0.20519,0.13791c3.09956,7.16336 5.78086,14.05611 5.77947,22.00592c-0.00021,1.23587 0.13174,5.72257 -0.52209,6.71459c-0.10611,0.16099 -0.22024,0.31492 -0.34117,0.46287l0.07821,0.05214l-1.43921,2.15881c-0.44513,0.68926 -1.2201,1.14551 -2.10163,1.14551c-1.27327,0 -2.32422,-0.95187 -2.48007,-2.18283l-0.30974,-2.16821c-1.5345,-2.73876 -2.19474,-5.65722 -2.61288,-8.79885c-0.3092,-2.32315 0.33473,-2.6131 -0.29106,-4.74295c-1.47684,-5.02639 -4.42957,-8.73119 -4.47499,-14.1866c0,0 0,-1.27732 0.91302,-2.00592z" fill="#edff29"/><path d="M232.0913,216.47119c0,0 -0.60597,-1.41394 0.2419,-2.49889c-0.13028,-2.54752 0.07033,-5.12364 0.02368,-7.67788c-0.02848,-1.55926 0.0646,-3.12469 -0.07471,-4.67797c-0.05559,-0.61978 -0.70969,-1.21982 -0.52493,-1.80052l-0.10896,-0.15255l-0.0696,0.0464l-1.44175,-2.16263c-0.27681,-0.40239 -0.43883,-0.88987 -0.43883,-1.41519c0,-1.38071 1.11929,-2.5 2.5,-2.5c0.85068,0 1.60213,0.42489 2.0537,1.07402l0.22422,0.31391c0.19979,-0.16945 0.44783,-0.32412 0.75424,-0.45544c0.54315,-0.23278 1.01293,-0.28215 1.41369,-0.22181c1.14557,-1.25676 3.42829,-0.96238 4.86911,-1.93172l1.6985,-1.6985c0.45241,-0.45241 1.07741,-0.73223 1.76777,-0.73223c0.86129,0 1.62085,0.43554 2.07044,1.09839c0.03997,-0.0019 0.08018,-0.00286 0.12062,-0.00286c1.38071,0 2.5,1.11929 2.5,2.5c0,0.1348 -0.01067,0.26711 -0.03121,0.39613l-0.3591,2.51367l-0.15416,-0.02202l0.08643,0.34347c-4.24544,10.06176 1.00085,19.39158 -0.68989,29.77868c-0.95894,3.79991 -3.64902,12.69168 -9.73319,11.01674c-1.49443,-0.41141 -2.23797,-2.19833 -3.01746,-3.53809c-0.56841,-0.97697 -0.76286,-2.14204 -0.93707,-3.25883c-0.09968,-0.639 0.03162,-4.49229 -0.02034,-5.321c-0.00845,-0.13479 -0.01697,-0.26929 -0.02553,-0.4035c-0.28162,-1.27479 -0.60167,-2.54075 -0.97045,-3.79042c-1.01468,-0.53998 -1.09284,-1.99417 -1.14535,-3.39088c-0.18462,-0.47993 -0.37833,-0.95624 -0.58178,-1.42846z" fill="#2527e8"/></g></g></svg>