<svg version="1.1" xmlns="http://www.w3.org/2000/svg" xmlns:xlink="http://www.w3.org/1999/xlink" width="59" height="72.5567" viewBox="0,0,59,72.5567"><g transform="translate(-69.20645,-5.36072)"><g data-paper-data="{&quot;isPaintingLayer&quot;:true}" fill-rule="nonzero" stroke="none" stroke-linecap="butt" stroke-linejoin="miter" stroke-miterlimit="10" stroke-dasharray="" stroke-dashoffset="0" style="mix-blend-mode: normal"><path d="M69.20645,77.91742v-72.5567h59v72.5567z" fill="#aebb8d" stroke-width="0"/><path d="M118.47449,36.9479c-1.38322,0 -1.5082,-1.2939 -1.5195,-1.52772c-1.96092,-1.90794 -4.07125,-3.29719 -6.16754,-5.10956c-1.05204,-0.90954 -1.69789,-2.22435 -2.59476,-3.29538c-1.20764,-1.44214 -2.95148,-2.32432 -4.2205,-3.70959c-1.03126,-1.12571 -1.4109,-2.73244 -2.06989,-4.12265c-0.81169,-1.71234 -2.29626,-2.64245 -3.44663,-4.05819c-1.3542,-1.6666 -2.08933,-2.5931 -4.33742,-2.69c-1.30433,1.64491 -2.87062,3.44136 -4.48384,4.76852c-0.53224,0.43785 -1.23159,0.65177 -1.71356,1.14742c-0.48196,0.49563 -0.68998,1.21479 -1.11578,1.76214c-1.06899,1.37411 -2.57913,2.38311 -3.64948,3.75292c-0.98187,1.25657 -1.4838,2.84272 -2.31543,4.20915c-1.27674,2.09775 -2.49346,3.913 -3.57701,6.11981c-1.35746,2.76469 -1.44997,5.64957 -3.142,8.31174c0,0 -0.84349,1.3011 -2.10872,0.4337c-1.26523,-0.8674 -0.42175,-2.16849 -0.42175,-2.16849c2.28284,-3.43479 2.75085,-8.07949 4.78428,-11.74264c4.26915,-7.69068 10.244,-13.59233 16.57945,-19.48361c1.14027,-0.02076 2.32222,-0.37713 3.42081,-0.0623c3.24339,0.92948 2.79889,1.66201 4.40672,3.62718c1.35598,1.65734 2.85111,2.6824 3.85234,4.69865c0.55326,1.11414 0.72243,2.49553 1.57959,3.38322c1.33019,1.37755 3.05383,2.33347 4.29497,3.79628c0.80343,0.94693 1.32838,2.15999 2.27122,2.9595c2.32035,1.96765 4.6361,3.51099 6.76965,5.70501l0.44538,1.73122c0,0 0,1.56372 -1.52062,1.56372z" fill="#8bba13" stroke-width="0.5"/><path d="M122.96746,52.94799c-1.26523,0.8674 -2.10872,-0.4337 -2.10872,-0.4337l-0.96941,-1.58241c-4.4703,-2.24437 -8.71392,-5.20503 -12.22204,-8.8126c-0.18643,-0.19171 -2.51953,-2.5826 -2.59134,-2.69335c-1.54629,-2.38452 -1.61022,-4.63782 -2.59003,-7.16209c-0.68639,-1.76835 -1.1824,-1.37247 -2.61467,-2.55076c-1.35768,-1.11693 -1.36996,-2.33569 -3.10788,-2.15924c-3.6804,0.85483 -6.45742,5.2598 -8.74179,8.19622c-2.72876,3.50763 -4.97105,7.15103 -7.15973,11.05228c-0.65572,1.1688 -1.78311,2.00542 -2.45467,3.16466c-0.34592,0.59712 -0.23501,1.43513 -0.66817,1.9687c-1.06632,1.31344 -2.63411,2.10611 -3.80784,3.31882c0,0 -1.07524,1.10572 -2.15048,0c-1.07524,-1.10572 0,-2.21144 0,-2.21144c1.06523,-1.09085 2.52999,-1.74735 3.49113,-2.93606c0.38779,-0.47962 0.2347,-1.25034 0.54832,-1.78424c0.66405,-1.13046 1.77921,-1.94056 2.41131,-3.09023c3.17285,-5.77085 6.62029,-11.26047 11.18841,-15.95807c1.08326,-1.11396 2.6235,-3.31608 3.97552,-4.00798c0.92508,-0.4734 1.9976,-0.5445 2.9964,-0.81675c0.86415,0.03577 1.78498,-0.21123 2.59245,0.10732c0.71742,0.28304 1.15149,1.04706 1.70982,1.58995c1.69326,1.64648 3.55352,2.52254 4.57312,4.85152c0.98091,2.24062 0.89779,4.47207 2.27595,6.59866c0.59103,0.91201 1.52104,1.5356 2.27464,2.31056c3.51729,3.61698 7.75903,6.22569 12.10785,8.70109l1.46358,2.17054c0,0 0.84349,1.3011 -0.42175,2.16849z" fill="#8bba13" stroke-width="0.5"/><path d="M121.98272,67.76435c-1.07524,1.10572 -2.15048,0 -2.15048,0l-0.89046,-0.99594c-0.76632,-0.18539 -1.58164,-0.22263 -2.29896,-0.5562c-2.41773,-1.12426 -3.51955,-3.47715 -5.32605,-5.32824c-0.47684,-0.48861 -3.12085,-3.20638 -3.19959,-3.31882c-0.5298,-0.75669 -0.71874,-1.72259 -1.21649,-2.50196c-0.93997,-1.47176 -2.80186,-2.32991 -3.70941,-3.84516c-0.33623,-0.56138 -0.28103,-1.30948 -0.60825,-1.87646c-0.25879,-0.44842 -0.78161,-0.67497 -1.09894,-1.0817c-1.1872,-1.52165 -1.96197,-3.24143 -3.27296,-4.66511c-1.75883,-0.67236 -1.75443,0.01989 -3.10249,1.1301c-0.53202,0.43815 -1.22883,0.65463 -1.71356,1.14742c-1.00458,1.02125 -1.45135,2.50302 -2.33227,3.6386c-1.25814,1.62187 -2.38323,3.37908 -3.64948,5.00391c-0.67568,0.86703 -1.77169,1.37252 -2.31543,2.33267c-0.29794,0.52611 -0.27028,1.19721 -0.53577,1.74139c-0.99015,2.02955 -2.70975,4.52854 -4.13678,6.24248c-0.63403,0.7615 -1.50146,1.30785 -2.07811,2.11617c-0.9127,1.27934 -1.51126,2.81118 -2.59134,3.94432c0,0 -1.07524,1.10572 -2.15048,0c-1.07524,-1.10572 0,-2.21144 0,-2.21144c0.98954,-0.99089 1.45628,-2.41738 2.27464,-3.56155c0.6237,-0.87202 1.53736,-1.48521 2.22285,-2.3067c1.28152,-1.53577 2.84336,-3.7732 3.72722,-5.59735c0.30789,-0.63545 0.31971,-1.40638 0.68073,-2.01153c0.45712,-0.76625 1.96153,-1.91255 2.55055,-2.67124c1.26447,-1.62871 2.38431,-3.3826 3.64948,-5.00391c0.55561,-0.71201 1.99842,-3.31165 2.53371,-3.86727c0.54933,-0.57018 1.32623,-0.85341 1.93592,-1.35454c1.56888,-1.28952 1.44885,-2.23089 4.00529,-2.23089c0.91798,0 1.74945,0.57268 2.62418,0.85903c1.67001,1.66661 2.59759,3.50138 4.02601,5.34272c0.39916,0.51454 1.00239,0.85731 1.33405,1.42026c0.33223,0.5639 0.28619,1.30635 0.60825,1.87646c0.79789,1.41244 2.68872,2.28951 3.58956,3.6607c0.50759,0.77263 0.69254,1.74098 1.21649,2.50196c0.78154,1.13509 1.92813,1.95096 2.88289,2.93606c1.30074,1.34206 2.63492,3.94922 4.40591,4.67958c0.82124,0.33868 1.71135,0.46319 2.56702,0.69479l1.54253,1.50602c0,0 1.07524,1.10572 0,2.21144z" fill="#8bba13" stroke-width="0.5"/><path d="M112.25076,72.76826c-1.07524,1.10572 -2.15048,0 -2.15048,0l-0.60825,-0.62549c-0.9495,-0.98419 -1.70125,-2.1513 -2.53371,-3.24178c-1.04664,-1.37104 -1.34359,-1.06176 -2.82934,-2.28404c-1.33338,-1.09694 -2.64473,-2.74513 -4.09312,-3.63205c-0.50869,-0.3115 -1.16498,-0.27637 -1.69339,-0.55096c-1.5176,-0.78862 -2.23247,-1.85523 -4.0067,-0.70003c-2.03543,1.32528 -3.05299,4.06435 -4.48946,5.91609c-1.25645,1.61968 -2.42581,3.13009 -3.56021,4.87993c0,0 -0.84349,1.3011 -2.10872,0.4337c-1.26523,-0.8674 -0.42175,-2.16849 -0.42175,-2.16849c1.1839,-1.8262 2.42042,-3.43846 3.73876,-5.12789c1.66184,-2.12963 2.82156,-5.14703 5.2425,-6.59369c1.24575,-0.74441 3.46264,-1.22672 4.88957,-0.79194c0.7774,0.23688 1.3257,0.97263 2.05218,1.34289c0.61858,0.31527 1.36507,0.33308 1.95609,0.70003c1.57047,0.97502 2.9823,2.68914 4.42235,3.87382c1.09131,0.89779 2.37151,1.60474 3.25314,2.71987c0.78749,0.99604 1.44543,2.10969 2.33227,3.01312l0.60825,0.62549c0,0 1.07524,1.10572 0,2.21144z" fill="#8bba13" stroke-width="0.5"/></g></g></svg>