<svg version="1.1" xmlns="http://www.w3.org/2000/svg" xmlns:xlink="http://www.w3.org/1999/xlink" width="172" height="137" viewBox="0,0,172,137"><g transform="translate(-215.90969,-54.46953)"><g data-paper-data="{&quot;isPaintingLayer&quot;:true}" fill-rule="nonzero" stroke="none" stroke-linecap="butt" stroke-linejoin="miter" stroke-miterlimit="10" stroke-dasharray="" stroke-dashoffset="0" style="mix-blend-mode: normal"><path d="M215.9097,191.46953v-137h172v137z" fill="#ff9b00" stroke-width="0"/><path d="M365.96305,105.96965c0.16994,0.00323 2.49018,0.09143 2.49018,2.49988c0,2.5 -2.5,2.5 -2.5,2.5l-2.76776,-0.73224c-5.3469,-5.38268 -12.03371,-8.20067 -18.65855,-11.7009c-7.27323,-3.84279 -14.19563,-8.71424 -21.64721,-12.17732c-9.04509,-4.20366 -18.99275,-6.03093 -28.21257,-9.7114c-0.2732,-0.11245 -4.45918,-2.40421 -5.98945,-1.78542c-0.99322,0.40163 -1.67057,1.3685 -2.62608,1.85306c-4.66884,2.36763 -9.45804,4.98191 -14.31158,7.12909c-5.80003,2.5659 -12.05143,4.35762 -17.47247,7.75175c-8.50338,5.32399 -15.74216,10.7877 -25.70799,13.29873c0,0 -2.42536,0.60634 -3.0317,-1.81901c-0.60634,-2.42535 1.81902,-3.0317 1.81902,-3.0317c9.44595,-2.34107 16.23999,-7.67694 24.29202,-12.70127c6.90647,-4.30952 14.94724,-6.5088 22.20135,-10.11196c3.38367,-1.68069 6.67804,-3.35987 10.01459,-5.00719c1.19529,-0.59014 2.09425,-1.77356 3.37392,-2.14694c3.57689,-1.04367 6.08092,0.67337 9.29532,1.92849c9.3006,3.72818 19.3286,5.57442 28.46289,9.81954c7.53172,3.50033 14.52547,8.40721 21.8757,12.29068c6.79568,3.59049 13.48293,6.58129 19.10036,11.85414z" fill="#fff3e2" stroke-width="0.5"/><path d="M344.99178,127.9167c-1.44718,2.03855 -3.48573,0.59138 -3.48573,0.59138l-2.57421,-1.90547c-1.70752,-0.30339 -3.52193,-0.24262 -5.12257,-0.91016c-0.97954,-0.40851 -1.42339,-1.60838 -2.31113,-2.19002c-1.2134,-0.79501 -2.59062,-1.30944 -3.91916,-1.89199c-2.51817,-1.1042 -5.27236,-1.65044 -7.72414,-2.89513c-1.97546,-1.00287 -3.31402,-2.98299 -5.21594,-4.11916c-0.97292,-0.58121 -2.31695,-0.43346 -3.20316,-1.13986c-0.9979,-0.79543 -1.24018,-2.28276 -2.17733,-3.14894c-1.97762,-1.82788 -4.74108,-2.55587 -7.09384,-3.8661c-0.30829,-0.12295 -9.08078,-3.61889 -9.23549,-3.69112c-1.09463,-0.5111 -1.95817,-1.60906 -3.15308,-1.78689c-0.84364,-0.12555 -1.53247,0.80299 -2.36989,0.96492c-2.37651,0.45955 -5.00538,0.37595 -7.07666,1.62847c-0.82724,0.50024 -1.23176,1.54411 -2.0619,2.03952c-0.83756,0.49985 -2.03655,0.24916 -2.79685,0.86014c-0.9603,0.7717 -1.04408,2.38594 -2.07736,3.05677c-2.21812,1.44006 -5.27286,1.06743 -7.5679,2.38144c-1.43665,0.82254 -2.57416,2.11225 -4.02538,2.90879c-3.59405,1.97271 -7.70386,3.3008 -11.34709,5.28016c-1.27895,0.69485 -2.69164,1.22282 -3.77453,2.19539c-0.95953,0.86178 -1.18525,2.39139 -2.20773,3.17745c-1.0507,0.80775 -2.48461,0.92329 -3.72692,1.38494c0,0 -2.3717,0.79057 -3.16227,-1.58114c-0.79057,-2.37171 1.58113,-3.16228 1.58113,-3.16228c0.7577,-0.20502 1.67371,-0.10823 2.27309,-0.61506c0.85103,-0.71963 0.95375,-2.08839 1.79227,-2.82255c1.413,-1.23713 3.16473,-2.0267 4.8004,-2.94957c3.65949,-2.06474 7.72994,-3.28808 11.36275,-5.2888c1.46972,-0.80943 2.61783,-2.12709 4.08504,-2.94107c2.13678,-1.18544 5.02499,-0.66793 7.0369,-2.05478c0.96483,-0.66508 1.00605,-2.2131 1.92264,-2.94323c0.88644,-0.70612 2.23266,-0.55462 3.20316,-1.13986c0.78691,-0.47453 1.13692,-1.51044 1.9381,-1.96047c2.68334,-1.50729 5.88862,-1.85893 8.92333,-2.37153c1.2407,-0.20957 2.38383,-1.20827 3.63012,-1.03508c1.75919,0.24447 3.21466,1.51294 4.84692,2.21311c3.08,1.32119 6.22356,2.48898 9.33405,3.73668c2.79102,1.54698 5.95919,2.57754 8.33663,4.70609c0.84036,0.75239 0.94332,2.14462 1.82266,2.85106c0.76038,0.61087 1.96141,0.35675 2.79685,0.86014c1.7588,1.05976 2.94028,2.97698 4.78405,3.88084c2.41508,1.18393 5.10755,1.71573 7.56063,2.81878c1.62964,0.73278 3.29677,1.42212 4.79608,2.3941c0.69241,0.44888 0.92155,1.50644 1.68887,1.80999c1.48713,0.58832 3.16091,0.48922 4.74136,0.73383l3.56185,2.45054c0,0 2.03855,1.44717 0.59138,3.48572z" fill="#fff3e2" stroke-width="0.5"/><path d="M373.32494,161.2601c-0.79057,2.37171 -3.16228,1.58113 -3.16228,1.58113l-3.30781,-1.12592c-5.14319,-3.40315 -11.00813,-5.49068 -16.5517,-8.18702c-4.43325,-2.15629 -8.83834,-4.57928 -13.37401,-6.50923c-7.65879,-3.25884 -16.01063,-5.10498 -23.55968,-8.59124c-3.05647,-1.41152 -5.91785,-3.22733 -8.99417,-4.59503c-2.71281,-1.62434 -5.12411,-3.85631 -8.0894,-4.95398c-3.35937,-1.24355 -4.64915,2.1519 -6.87089,3.61882c-1.40473,0.92748 -2.96256,1.60769 -4.50507,2.28159c-4.22992,1.84801 -8.75387,3.19144 -13,5c-3.62164,1.54257 -6.40836,4.43977 -9.94533,5.97659c-1.23969,0.53864 -2.72819,0.36621 -3.93695,0.97106c-1.47249,0.73681 -2.47677,2.22736 -3.94485,2.97291c-1.50131,0.76243 -3.28865,0.80248 -4.82894,1.48275c-1.63459,0.72192 -2.90842,2.22958 -4.63331,2.69628c-1.82378,0.49345 -3.77823,0.06047 -5.66734,0.09072c0,0 -2.5,0 -2.5,-2.5c0,-2.5 2.5,-2.5 2.5,-2.5c1.44422,0.03024 2.94344,0.4866 4.33267,0.09071c1.48755,-0.42392 2.52979,-1.81684 3.94162,-2.44868c1.45939,-0.65314 3.17095,-0.64755 4.59614,-1.37229c1.50356,-0.76459 2.54621,-2.27319 4.05515,-3.02708c1.2498,-0.62442 2.7759,-0.48565 4.06304,-1.02894c2.13121,-0.89956 3.7462,-2.73158 5.75657,-3.87599c5.41481,-3.0824 11.57569,-4.75104 17.29811,-7.14742c5.25319,-2.19988 7.99199,-7.91663 14.62404,-6.09959c0.44056,0.1207 8.3024,4.88011 9.06046,5.33594c3.00694,1.33546 5.80326,3.10986 8.78815,4.4939c7.49045,3.47319 15.81006,5.29112 23.41764,8.52817c4.61289,1.96281 9.09485,4.42035 13.60351,6.61379c5.53638,2.69342 11.44818,4.75563 16.56129,8.1917l2.69219,0.87408c0,0 2.37171,0.79057 1.58114,3.16228z" fill="#fff3e2" stroke-width="0.5"/><path d="M354.7438,173.84124c-2.37171,0.79057 -3.16228,-1.58113 -3.16228,-1.58113l-0.32692,-1.95627c-6.80991,-0.98507 -12.8357,-4.07104 -19.16874,-6.4896c-1.28393,-0.49032 -2.71491,-0.51274 -4,-1c-2.56781,-0.97364 -4.60134,-3.09058 -7.17465,-4.04958c-3.58968,-1.33779 -8.44913,-2.02153 -12.1651,-3.12562c-5.21476,-1.54946 -11.808,-4.61434 -17.38337,-3.70327c-2.74288,0.44821 -5.13284,2.16317 -7.79818,2.95072c-3.91229,1.156 -7.90542,1.56029 -11.77777,2.94c-5.72415,2.03949 -11.99066,3.76408 -17.48161,6.33263c-1.63552,0.76506 -2.94491,2.23628 -4.68461,2.71971c-1.7222,0.47856 -3.58524,-0.12433 -5.36187,0.07199c-2.38053,0.26305 -4.53405,1.64778 -6.905,1.98645c-1.45212,0.20742 -2.93364,0.02152 -4.40046,0.03229c0,0 -2.5,0 -2.5,-2.5c0,-2.5 2.5,-2.5 2.5,-2.5c4.13728,0.0371 6.60913,-1.52486 10.69455,-1.98127c1.53667,-0.17167 3.14759,0.48326 4.63812,0.07198c1.47307,-0.40647 2.5092,-1.7713 3.89032,-2.42525c1.58198,-0.74905 3.29767,-1.17487 4.94754,-1.75937c5.35928,-1.89866 10.66066,-4.24306 16.1305,-5.8064c2.91998,-0.83456 5.98103,-1.11723 8.89345,-1.97781c1.90512,-0.56294 6.24752,-2.75684 8.39601,-3.08813c6.51226,-1.00417 13.51603,2.02734 19.62647,3.84283c3.82058,1.13518 8.96306,1.90676 12.63087,3.28945c2.5183,0.94935 4.49581,3.05441 7.01954,3.98925c8.16177,3.02328 16.45455,5.88665 24.83126,8.51041l1.67309,4.04374c0,0 0.79057,2.3717 -1.58114,3.16227z" fill="#fff3e2" stroke-width="0.5"/><path d="M285.45323,100.46953c0,-2.5 2.5,-2.5 2.5,-2.5c1.66667,0 4.33333,0 6,0c0,0 2.5,0 2.5,2.5c0,2.5 -2.5,2.5 -2.5,2.5c-1.66667,0 -3.33333,0 -5,0h-1c0,0 -2.5,0 -2.5,-2.5z" fill="#fff3e2" stroke-width="0.5"/></g></g></svg>