<svg version="1.1" xmlns="http://www.w3.org/2000/svg" xmlns:xlink="http://www.w3.org/1999/xlink" width="47.76328" height="120.67936" viewBox="0,0,47.76328,120.67936"><g transform="translate(-218.24606,-120.19001)"><g data-paper-data="{&quot;isPaintingLayer&quot;:true}" fill-rule="nonzero" stroke="none" stroke-width="0.5" stroke-linecap="butt" stroke-linejoin="miter" stroke-miterlimit="10" stroke-dasharray="" stroke-dashoffset="0" style="mix-blend-mode: normal"><path d="M248.0059,142.2783c-0.31575,2.47998 -2.79573,2.16423 -2.79573,2.16423l-2.15882,-0.3002c-0.82988,-0.22836 -1.65976,-0.45674 -2.48965,-0.6851c0,0 -2.4104,-0.66331 -1.7471,-3.07371c0.66331,-2.4104 3.0737,-1.7471 3.0737,-1.7471c0.82988,0.22836 1.65977,0.45675 2.48966,0.68511l1.46372,0.16103c0,0 2.47998,0.31575 2.16423,2.79573z" fill="#80e88a"/><path d="M246.24533,121.8658c1.97687,-1.53033 3.50723,0.44654 3.50723,0.44654c3.1997,4.17029 6.70432,11.15562 2.34568,15.97215c-4.40619,4.86908 -14.33545,2.60132 -16.744,-3.33335c-2.31959,-5.71548 4.26879,-12.20516 9.88037,-11.16682c-0.01537,-0.60538 0.20992,-1.2986 1.01073,-1.91852z" data-paper-data="{&quot;index&quot;:null}" fill="#8dff99"/><path d="M250.66736,130.04417l-0.41447,-0.07223c-3.51042,-0.00814 -7.41008,0.19856 -9.18479,-2.30122l-2.18564,0.89284c-0.3967,0.17079 -0.84289,0.24096 -1.30236,0.18246c-1.36965,-0.17439 -2.33861,-1.42608 -2.16423,-2.79573c0.11134,-0.87447 0.66181,-1.58561 1.40178,-1.94012l2.3233,-1.15502l0.08336,0.16768l0.14266,-0.05828c0.20364,-0.13623 0.41828,-0.25705 0.64624,-0.35918c0.4808,-0.2154 0.89484,-0.34904 1.25574,-0.4164c2.06822,-0.6662 4.0405,-2.15279 6.20615,-1.98602c3.357,0.25851 1.94062,5.16793 4.52923,2.81747c0,0 2.23862,-1.11292 3.35154,1.1257c1.11292,2.23862 -1.1257,3.35154 -1.1257,3.35154c-0.25757,0.09903 -0.51186,0.22672 -0.76492,0.3651c-0.00071,0.00572 -0.00142,0.01145 -0.00215,0.0172c-0.31575,2.47998 -2.79573,2.16423 -2.79573,2.16423z" data-paper-data="{&quot;index&quot;:null}" fill="#5aa562"/><path d="M238.16679,141.84387c0.0435,0.01209 0.08688,0.02397 0.13015,0.03564l0.34383,0.04848c0,0 0.22485,0.0394 0.52675,0.16235c3.05476,0.65569 5.64505,0.33084 8.89543,0.27725l0.11645,0.0107c0.74835,-0.51083 1.6559,-0.46509 1.6559,-0.46509l2.34692,0.16688c3.82779,0.9682 8.61942,1.25956 11.32502,4.50566c4.08844,4.90519 2.07561,10.56273 1.48046,16.02158c-0.58146,5.3332 1.16144,8.28114 -3.20113,12.88695c-3.04554,3.21533 -9.07117,3.64109 -11.24124,-1.20232c-0.21474,-0.47929 1.6549,-6.03244 0.67515,-6.75212c-0.65387,-0.48031 -1.56526,0.43393 -2.32777,0.71111c-2.30043,1.74886 -0.46447,5.32606 -0.23657,7.79987c0.41585,4.51405 0.02561,12.38194 -2.59702,16.17331c-2.99045,4.32312 -7.90395,4.07358 -12.23327,2.34555c-1.23728,-0.49386 -2.76559,-0.73939 -3.56621,-1.80418c-1.49453,-1.98765 -0.9125,-4.93033 -0.68758,-7.12952c0.47165,-4.61175 0.64885,-9.24728 1.21804,-13.83348c0.43069,-1.70272 0.57754,-3.46648 0.95332,-5.18212c-0.78682,1.6435 -1.86493,4.09214 -2.44368,4.52597c-4.12161,3.08951 -8.06713,1.36016 -10.75492,-3.19411c-1.07816,-1.82686 1.06893,-4.10573 1.58911,-6.16225c1.97551,-7.8102 3.42711,-15.19465 10.21725,-20.16052c0,0 1.873,-1.3608 3.32368,0.33907c0.69569,-0.2018 1.40476,-0.35041 2.11464,-0.44259l1.66194,0.23434c0.41635,0.0013 0.71535,0.08357 0.71535,0.08357z" fill="#d7e824"/><path d="M231.81115,191.52084l1.57599,0.72238c2.0345,1.60042 5.15076,2.90699 7.86421,2.32369c2.01536,-0.43323 5.03602,-2.86507 7.09971,-1.20849c0.42684,0.34263 0.33719,7.70898 0.70601,9.10893c0.35658,1.35341 0.09776,8.42966 0.41722,9.56071c1.22289,4.3297 -1.6479,19.29156 -3.52951,22.95964c-1.33909,1.91981 -1.77191,5.09826 -4.01727,5.75942c-3.59963,1.05993 -6.35341,-5.05938 -6.64316,-7.30213c-0.0897,-0.69432 1.07266,-4.594 1.24432,-5.58429c0.76206,-4.39606 1.70682,-8.97784 1.83125,-13.46016c0.02097,-0.75533 0.75314,-6.21673 -2.23144,-4.43138c-0.33558,0.20074 0.27156,0.76213 0.22808,1.15074c-0.29835,2.66613 -0.84526,2.58651 -1.61439,5.05102c-0.30878,0.9894 -0.48622,2.0151 -0.73072,3.0223c-0.60299,2.4841 -1.21152,4.96688 -1.81727,7.45031c-1.1016,4.39124 -6.09771,14.19702 -11.78059,6.72309c-1.0514,-1.38278 1.23194,-6.75372 1.17552,-8.67238c-0.05927,-2.01568 -0.65483,-4.02442 -0.46348,-6.03187c0.41645,-4.36881 2.37342,-8.65688 3.14495,-12.97935c0.78574,-4.4021 1.32001,-7.95864 3.0452,-11.94716c-0.0465,-0.38683 0.00907,-0.83601 0.22959,-1.35125c0.67622,-1.58002 1.97377,-1.60896 2.71879,-1.47273c0.31414,0.02255 0.6606,0.11372 1.03953,0.30047c0.19299,0.09512 0.36119,0.19866 0.50743,0.30847z" fill="#2527e8"/></g></g></svg>