<svg version="1.1" xmlns="http://www.w3.org/2000/svg" xmlns:xlink="http://www.w3.org/1999/xlink" width="97" height="336.27835" viewBox="0,0,97,336.27835"><g transform="translate(-11.20645,-13.36072)"><g data-paper-data="{&quot;isPaintingLayer&quot;:true}" fill-rule="nonzero" stroke="none" stroke-linecap="butt" stroke-linejoin="miter" stroke-miterlimit="10" stroke-dasharray="" stroke-dashoffset="0" style="mix-blend-mode: normal"><path d="M11.20645,349.63907v-116h97v116z" fill="#aebb8d" stroke-width="0"/><path d="M92.20645,284.13907c-2.2741,0 -2.47959,-2.06862 -2.49816,-2.44245c-3.22388,-3.05032 -6.69341,-5.27138 -10.13985,-8.16891c-1.72962,-1.45415 -2.79145,-3.55619 -4.26596,-5.26848c-1.98544,-2.3056 -4.85243,-3.716 -6.93878,-5.9307c-1.69546,-1.79975 -2.31962,-4.3685 -3.40304,-6.59108c-1.33447,-2.7376 -3.77521,-4.22462 -5.66649,-6.48804c-2.22639,-2.66447 -3.435,-4.14572 -7.13101,-4.30064c-2.1444,2.6298 -4.7195,5.50187 -7.37174,7.62366c-0.87504,0.70003 -2.02482,1.04203 -2.81721,1.83441c-0.79238,0.79238 -1.13438,1.94216 -1.83441,2.81721c-1.75749,2.19686 -4.24026,3.80999 -6,6c-1.61426,2.00895 -2.43947,4.5448 -3.80673,6.72936c-2.09904,3.35377 -4.09941,6.25589 -5.88084,9.78405c-2.23175,4.42005 -2.38385,9.03227 -5.16566,13.28837c0,0 -1.38675,2.08013 -3.46688,0.69338c-2.08013,-1.38675 -0.69338,-3.46688 -0.69338,-3.46688c3.75315,-5.49138 4.52258,-12.91708 7.86568,-18.77352c7.01877,-12.29548 16.84183,-21.73073 27.25774,-31.14943c1.87468,-0.0332 3.81789,-0.60293 5.62404,-0.09959c5.33235,1.48602 4.60156,2.65714 7.24495,5.79895c2.22933,2.64968 4.68741,4.28848 6.33351,7.51196c0.90959,1.78121 1.18772,3.98973 2.59696,5.40892c2.18692,2.20236 5.02071,3.73064 7.06122,6.0693c1.3209,1.51391 2.18394,3.45328 3.73404,4.73152c3.81482,3.14578 7.62207,5.61318 11.12976,9.12087l0.73223,2.76777c0,0 0,2.5 -2.5,2.5z" fill="#8bba13" stroke-width="0.5"/><path d="M99.5932,309.71919c-2.08013,1.38675 -3.46688,-0.69338 -3.46688,-0.69338l-1.59378,-2.52986c-7.34947,-3.5882 -14.32628,-8.32154 -20.09387,-14.08913c-0.30651,-0.30651 -4.14228,-4.12895 -4.26034,-4.30599c-2.5422,-3.81227 -2.64731,-7.41469 -4.25818,-11.45039c-1.12847,-2.82714 -1.94395,-2.19424 -4.29869,-4.07803c-2.23211,-1.78569 -2.25231,-3.73417 -5.10957,-3.45209c-6.05083,1.36665 -10.61643,8.40911 -14.3721,13.1037c-4.48627,5.60783 -8.17275,11.43272 -11.77108,17.66984c-1.07804,1.86862 -2.93156,3.20617 -4.03565,5.05951c-0.56871,0.95465 -0.38637,2.29443 -1.09852,3.14745c-1.7531,2.09987 -4.33066,3.36714 -6.26034,5.30599c0,0 -1.76777,1.76777 -3.53553,0c-1.76777,-1.76777 0,-3.53553 0,-3.53553c1.75131,-1.744 4.15948,-2.79358 5.73966,-4.69401c0.63756,-0.76677 0.38587,-1.99899 0.90148,-2.85255c1.09174,-1.80732 2.92515,-3.10247 3.96435,-4.94049c5.21638,-9.22613 10.88421,-18.00265 18.39451,-25.51295c1.78095,-1.78095 4.31322,-5.30159 6.53602,-6.40773c1.52089,-0.75685 3.28419,-0.87051 4.92629,-1.30577c1.42072,0.05719 2.93463,-0.33771 4.26217,0.17157c1.17949,0.45249 1.89313,1.67397 2.81106,2.54193c2.78384,2.63231 5.84223,4.03292 7.51852,7.75638c1.61268,3.58217 1.47603,7.14972 3.74182,10.54961c0.97169,1.45805 2.50069,2.45504 3.73966,3.69401c5.78266,5.78266 12.75637,9.95332 19.90613,13.91087l2.40622,3.47014c0,0 1.38675,2.08013 -0.69338,3.46688z" fill="#8bba13" stroke-width="0.5"/><path d="M97.97422,333.40684c-1.76777,1.76777 -3.53553,0 -3.53553,0l-1.46398,-1.59227c-1.25988,-0.2964 -2.60033,-0.35594 -3.77964,-0.88921c-3.97491,-1.79743 -5.78638,-5.55909 -8.75638,-8.51852c-0.78396,-0.78117 -5.13089,-5.1262 -5.26034,-5.30599c-0.87103,-1.20976 -1.18166,-2.75399 -2,-4c-1.54537,-2.35299 -4.60645,-3.72493 -6.09852,-6.14745c-0.55279,-0.89751 -0.46203,-2.09352 -1,-3c-0.42547,-0.71692 -1.28502,-1.07911 -1.80673,-1.72936c-1.95184,-2.43274 -3.22561,-5.18223 -5.38097,-7.45835c-2.89164,-1.07493 -2.88441,0.0318 -5.1007,1.80673c-0.87468,0.70049 -2.02028,1.04659 -2.81721,1.83441c-1.6516,1.63274 -2.38612,4.00169 -3.83441,5.81721c-2.06847,2.59295 -3.91819,5.4023 -6,8c-1.11087,1.38616 -2.91278,2.19432 -3.80673,3.72936c-0.48984,0.84112 -0.44436,1.91404 -0.88084,2.78405c-1.62787,3.24474 -4.45501,7.24 -6.80114,9.98017c-1.04239,1.21746 -2.4685,2.09095 -3.41655,3.38323c-1.50054,2.04536 -2.48461,4.49439 -4.26034,6.30599c0,0 -1.76777,1.76777 -3.53553,0c-1.76777,-1.76777 0,-3.53553 0,-3.53553c1.62687,-1.58418 2.39423,-3.86477 3.73966,-5.69401c1.02541,-1.39414 2.52752,-2.37447 3.65452,-3.68784c2.1069,-2.45531 4.67468,-6.03239 6.1278,-8.94876c0.50619,-1.01592 0.52563,-2.24846 1.11916,-3.21595c0.75153,-1.22504 3.22489,-3.05769 4.19327,-4.27064c2.07887,-2.60391 3.91997,-5.40793 6,-8c0.91346,-1.13832 3.28553,-5.2945 4.16559,-6.18279c0.90314,-0.91159 2.18042,-1.3644 3.18279,-2.16559c2.57934,-2.06163 2.38201,-3.56664 6.58497,-3.56664c1.50922,0 2.87622,0.91558 4.31433,1.37337c2.74561,2.66449 4.27061,5.59784 6.61903,8.54165c0.65624,0.82262 1.64799,1.37063 2.19327,2.27064c0.54621,0.90154 0.47052,2.08854 1,3c1.31178,2.25815 4.42043,3.66036 5.90148,5.85255c0.83452,1.23523 1.13858,2.78338 2,4c1.28491,1.81473 3.16998,3.1191 4.73966,4.69401c2.1385,2.14563 4.33198,6.31382 7.24362,7.48148c1.35017,0.54146 2.81358,0.74052 4.22036,1.11079l2.53602,2.40773c0,0 1.76777,1.76777 0,3.53553z" fill="#8bba13" stroke-width="0.5"/><path d="M81.97422,341.40684c-1.76777,1.76777 -3.53553,0 -3.53553,0l-1,-1c-1.56105,-1.57345 -2.79697,-3.43938 -4.16559,-5.18279c-1.72074,-2.19196 -2.20895,-1.69748 -4.65162,-3.65162c-2.19217,-1.75373 -4.34812,-4.38879 -6.72936,-5.80673c-0.83632,-0.498 -1.91531,-0.44184 -2.78405,-0.88084c-2.49503,-1.26081 -3.67033,-2.96605 -6.58729,-1.11916c-3.34638,2.11877 -5.01933,6.49789 -7.38097,9.45835c-2.06569,2.58946 -3.9882,5.00423 -5.85323,7.80178c0,0 -1.38675,2.08013 -3.46688,0.69338c-2.08013,-1.38675 -0.69338,-3.46688 -0.69338,-3.46688c1.94641,-2.91961 3.97934,-5.49723 6.14677,-8.19822c2.73217,-3.40474 4.63884,-8.22883 8.61903,-10.54165c2.04809,-1.19012 5.69281,-1.96122 8.03879,-1.2661c1.2781,0.37871 2.17954,1.55498 3.37392,2.14694c1.01698,0.50404 2.24426,0.53252 3.21595,1.11916c2.58196,1.55881 4.90311,4.29925 7.27064,6.19327c1.79418,1.43534 3.89892,2.56559 5.34838,4.34838c1.29468,1.59242 2.37638,3.37285 3.83441,4.81721l1,1c0,0 1.76777,1.76777 0,3.53553z" fill="#8bba13" stroke-width="0.5"/><path d="M37.20645,83.91742v-70.5567h59v70.5567z" fill="#aebb8d" stroke-width="0"/><path d="M86.47449,44.07721c-1.38322,0 -1.5082,-1.25823 -1.5195,-1.48561c-1.96092,-1.85535 -4.07125,-3.2063 -6.16754,-4.96872c-1.05204,-0.88448 -1.69789,-2.16304 -2.59476,-3.20454c-1.20764,-1.40238 -2.95148,-2.26025 -4.2205,-3.60733c-1.03126,-1.09469 -1.4109,-2.65713 -2.06989,-4.00901c-0.81169,-1.66514 -2.29626,-2.56961 -3.44663,-3.94633c-1.3542,-1.62066 -2.08933,-2.52162 -4.33742,-2.61585c-1.30433,1.59957 -2.87062,3.3465 -4.48384,4.63707c-0.53224,0.42579 -1.23159,0.63381 -1.71356,1.11578c-0.48196,0.48196 -0.68998,1.18131 -1.11578,1.71356c-1.06899,1.33623 -2.57913,2.31742 -3.64948,3.64948c-0.98187,1.22194 -1.4838,2.76436 -2.31543,4.09312c-1.27674,2.03992 -2.49346,3.80513 -3.57701,5.95112c-1.35746,2.68848 -1.44997,5.49385 -3.142,8.08262c0,0 -0.84349,1.26523 -2.10872,0.42175c-1.26523,-0.84349 -0.42175,-2.10872 -0.42175,-2.10872c2.28284,-3.34012 2.75085,-7.85678 4.78428,-11.41895c4.26915,-7.47869 10.244,-13.21766 16.57945,-18.94656c1.14027,-0.02019 2.32222,-0.36673 3.42081,-0.06058c3.24339,0.90387 2.79889,1.6162 4.40672,3.5272c1.35598,1.61166 2.85111,2.60846 3.85234,4.56913c0.55326,1.08342 0.72243,2.42674 1.57959,3.28996c1.33019,1.33958 3.05383,2.26915 4.29497,3.69164c0.80343,0.92083 1.32838,2.10045 2.27122,2.87793c2.32035,1.91341 4.6361,3.4142 6.76965,5.54775l0.44538,1.68349c0,0 0,1.52062 -1.52062,1.52062z" fill="#8bba13" stroke-width="0.5"/><path d="M90.96746,59.63626c-1.26523,0.84349 -2.10872,-0.42175 -2.10872,-0.42175l-0.96941,-1.53878c-4.4703,-2.18251 -8.71392,-5.06156 -12.22204,-8.56968c-0.18643,-0.18643 -2.51953,-2.51142 -2.59134,-2.61911c-1.54629,-2.3188 -1.61022,-4.50997 -2.59003,-6.96467c-0.68639,-1.7196 -1.1824,-1.33464 -2.61467,-2.48045c-1.35768,-1.08614 -1.36996,-2.2713 -3.10788,-2.09972c-3.6804,0.83126 -6.45742,5.11482 -8.74179,7.97029c-2.72876,3.41095 -4.97105,6.95392 -7.15973,10.74763c-0.65572,1.13658 -1.78311,1.95014 -2.45467,3.07743c-0.34592,0.58066 -0.23501,1.39558 -0.66817,1.91443c-1.06632,1.27724 -2.63411,2.04805 -3.80784,3.22735c0,0 -1.07524,1.07524 -2.15048,0c-1.07524,-1.07524 0,-2.15048 0,-2.15048c1.06523,-1.06078 2.52999,-1.69919 3.49113,-2.85512c0.38779,-0.46639 0.2347,-1.21588 0.54832,-1.73506c0.66405,-1.0993 1.77921,-1.88707 2.41131,-3.00504c3.17285,-5.61177 6.62029,-10.95007 11.18841,-15.51819c1.08326,-1.08326 2.6235,-3.22468 3.97552,-3.89749c0.92508,-0.46035 1.9976,-0.52949 2.9964,-0.79423c0.86415,0.03479 1.78498,-0.20541 2.59245,0.10436c0.71742,0.27523 1.15149,1.01819 1.70982,1.54612c1.69326,1.6011 3.55352,2.45301 4.57312,4.7178c0.98091,2.17885 0.89779,4.3488 2.27595,6.41677c0.59103,0.88686 1.52104,1.49327 2.27464,2.24687c3.51729,3.51729 7.75903,6.05408 12.10785,8.46125l1.46358,2.1107c0,0 0.84349,1.26523 -0.42175,2.10872z" fill="#8bba13" stroke-width="0.5"/><path d="M89.98272,74.04421c-1.07524,1.07524 -2.15048,0 -2.15048,0l-0.89046,-0.96849c-0.76632,-0.18028 -1.58164,-0.2165 -2.29896,-0.54086c-2.41773,-1.09328 -3.51955,-3.3813 -5.32605,-5.18137c-0.47684,-0.47514 -3.12085,-3.118 -3.19959,-3.22735c-0.5298,-0.73583 -0.71874,-1.67511 -1.21649,-2.43299c-0.93997,-1.4312 -2.80186,-2.26568 -3.70941,-3.73917c-0.33623,-0.54591 -0.28103,-1.27338 -0.60825,-1.82474c-0.25879,-0.43606 -0.78161,-0.65637 -1.09894,-1.05188c-1.1872,-1.47971 -1.96197,-3.15208 -3.27296,-4.53652c-1.75883,-0.65382 -1.75443,0.01934 -3.10249,1.09894c-0.53202,0.42607 -1.22883,0.63659 -1.71356,1.11578c-1.00458,0.99311 -1.45135,2.43402 -2.33227,3.5383c-1.25814,1.57716 -2.38323,3.28594 -3.64948,4.86598c-0.67568,0.84313 -1.77169,1.33469 -2.31543,2.26837c-0.29794,0.51161 -0.27028,1.16421 -0.53577,1.69339c-0.99015,1.9736 -2.70975,4.40371 -4.13678,6.07041c-0.63403,0.74052 -1.50146,1.27181 -2.07811,2.05784c-0.9127,1.24408 -1.51126,2.7337 -2.59134,3.8356c0,0 -1.07524,1.07524 -2.15048,0c-1.07524,-1.07524 0,-2.15048 0,-2.15048c0.98954,-0.96357 1.45628,-2.35074 2.27464,-3.46337c0.6237,-0.84798 1.53736,-1.44427 2.22285,-2.24312c1.28152,-1.49344 2.84336,-3.66919 3.72722,-5.44306c0.30789,-0.61793 0.31971,-1.36762 0.68073,-1.95609c0.45712,-0.74513 1.96153,-1.85983 2.55055,-2.59761c1.26447,-1.58382 2.38431,-3.28936 3.64948,-4.86598c0.55561,-0.69238 1.99842,-3.22037 2.53371,-3.76067c0.54933,-0.55447 1.32623,-0.82989 1.93592,-1.31721c1.56888,-1.25398 1.44885,-2.1694 4.00529,-2.1694c0.91798,0 1.74945,0.5569 2.62418,0.83535c1.67001,1.62067 2.59759,3.40487 4.02601,5.19544c0.39916,0.50036 1.00239,0.83368 1.33405,1.38111c0.33223,0.54836 0.28619,1.27035 0.60825,1.82474c0.79789,1.37351 2.68872,2.2264 3.58956,3.5598c0.50759,0.75133 0.69254,1.69298 1.21649,2.43299c0.78154,1.1038 1.92813,1.89718 2.88289,2.85512c1.30074,1.30507 2.63492,3.84036 4.40591,4.55059c0.82124,0.32934 1.71135,0.45042 2.56702,0.67564l1.54253,1.4645c0,0 1.07524,1.07524 0,2.15048z" fill="#8bba13" stroke-width="0.5"/><path d="M80.25076,78.91019c-1.07524,1.07524 -2.15048,0 -2.15048,0l-0.60825,-0.60825c-0.9495,-0.95705 -1.70125,-2.09199 -2.53371,-3.15242c-1.04664,-1.33325 -1.34359,-1.03249 -2.82934,-2.22109c-1.33338,-1.0667 -2.64473,-2.66947 -4.09312,-3.53193c-0.50869,-0.30291 -1.16498,-0.26875 -1.69339,-0.53577c-1.5176,-0.76688 -2.23247,-1.80409 -4.0067,-0.68073c-2.03543,1.28874 -3.05299,3.95232 -4.48946,5.75302c-1.25645,1.57503 -2.42581,3.04381 -3.56021,4.74541c0,0 -0.84349,1.26523 -2.10872,0.42175c-1.26523,-0.84349 -0.42175,-2.10872 -0.42175,-2.10872c1.1839,-1.77585 2.42042,-3.34368 3.73876,-4.98655c1.66184,-2.07092 2.82156,-5.00516 5.2425,-6.41193c1.24575,-0.72389 3.46264,-1.19291 4.88957,-0.7701c0.7774,0.23035 1.3257,0.94581 2.05218,1.30587c0.61858,0.30658 1.36507,0.3239 1.95609,0.68073c1.57047,0.94814 2.9823,2.61501 4.42235,3.76704c1.09131,0.87304 2.37151,1.56051 3.25314,2.64489c0.78749,0.96859 1.44543,2.05153 2.33227,2.93006l0.60825,0.60825c0,0 1.07524,1.07524 0,2.15048z" fill="#8bba13" stroke-width="0.5"/></g></g></svg>