<svg version="1.1" xmlns="http://www.w3.org/2000/svg" xmlns:xlink="http://www.w3.org/1999/xlink" width="463.00005" height="312" viewBox="0,0,463.00005,312"><g transform="translate(0.09031,-54.46953)"><g data-paper-data="{&quot;isPaintingLayer&quot;:true}" fill-rule="nonzero" stroke-linecap="butt" stroke-linejoin="miter" stroke-miterlimit="10" stroke-dasharray="" stroke-dashoffset="0" style="mix-blend-mode: normal"><path d="M175.90971,365.46953v-27h21v27z" fill="#25ff00" stroke="#000000" stroke-width="2"/><path d="M367.90975,320.46953v-27h21v27z" fill="#25ff00" stroke="#000000" stroke-width="2"/><path d="M440.90975,316.46953v-27h21v27z" fill="#25ff00" stroke="#000000" stroke-width="2"/><path d="M403.90975,358.46953v-82h21v82z" fill="#25ff00" stroke="#000000" stroke-width="2"/><path d="M155.29474,82.98236c4.97261,-6.05723 -0.53386,-16.55065 4.14327,-22.64601c1.51184,-1.97026 3.05385,-3.91876 4.48624,-5.86682h218.02102c-0.09223,10.33133 0.46428,20.66637 0.85802,31c0,0 -229.30108,-0.30364 -227.50854,-2.48717z" fill="#ff9b00" stroke="none" stroke-width="0"/><path d="M-0.09031,85.46953v-31h115.2188c0.73222,3.69778 2.72361,7.38575 2.78055,11.06906c0.06312,4.08334 -1.09783,11.3698 -1.94954,19.93094z" fill="#ff9b00" stroke="none" stroke-width="0"/></g></g></svg>