<svg version="1.1" xmlns="http://www.w3.org/2000/svg" xmlns:xlink="http://www.w3.org/1999/xlink" width="59" height="48.5567" viewBox="0,0,59,48.5567"><g transform="translate(-381.20645,-11.36072)"><g data-paper-data="{&quot;isPaintingLayer&quot;:true}" fill-rule="nonzero" stroke="none" stroke-linecap="butt" stroke-linejoin="miter" stroke-miterlimit="10" stroke-dasharray="" stroke-dashoffset="0" style="mix-blend-mode: normal"><path d="M381.20645,59.91742v-48.5567h59v48.5567z" fill="#aebb8d" stroke-width="0"/><path d="M430.47449,32.49963c-1.38322,0 -1.5082,-0.86591 -1.5195,-1.02239c-1.96092,-1.27684 -4.07125,-2.20656 -6.16754,-3.41944c-1.05204,-0.60869 -1.69789,-1.48859 -2.59476,-2.20535c-1.20764,-0.96511 -2.95148,-1.55549 -4.2205,-2.48255c-1.03126,-0.75335 -1.4109,-1.82861 -2.06989,-2.75898c-0.81169,-1.14594 -2.29626,-1.76839 -3.44663,-2.71584c-1.3542,-1.11533 -2.08933,-1.73537 -4.33742,-1.80021c-1.30433,1.10081 -2.87062,2.30304 -4.48384,3.19121c-0.53224,0.29302 -1.23159,0.43618 -1.71356,0.76788c-0.48196,0.33169 -0.68998,0.81297 -1.11578,1.17927c-1.06899,0.91959 -2.57913,1.59483 -3.64948,2.51154c-0.98187,0.84093 -1.4838,1.90242 -2.31543,2.81687c-1.27674,1.40387 -2.49346,2.61867 -3.57701,4.09552c-1.35746,1.8502 -1.44997,3.78083 -3.142,5.56242c0,0 -0.84349,0.87073 -2.10872,0.29024c-1.26523,-0.58049 -0.42175,-1.45121 -0.42175,-1.45121c2.28284,-2.29864 2.75085,-5.40699 4.78428,-7.85846c4.26915,-5.14679 10.244,-9.09632 16.57945,-13.0389c1.14027,-0.01389 2.32222,-0.25238 3.42081,-0.04169c3.24339,0.62203 2.79889,1.11226 4.40672,2.4274c1.35598,1.10913 2.85111,1.79513 3.85234,3.14445c0.55326,0.74561 0.72243,1.67007 1.57959,2.26413c1.33019,0.92189 3.05383,1.56161 4.29497,2.54056c0.80343,0.63371 1.32838,1.44552 2.27122,1.98057c2.32035,1.3168 4.6361,2.34964 6.76965,3.81793l0.44538,1.15857c0,0 0,1.04648 -1.52062,1.04648z" fill="#8bba13" stroke-width="0.5"/><path d="M434.96746,43.20727c-1.26523,0.58049 -2.10872,-0.29024 -2.10872,-0.29024l-0.96941,-1.05899c-4.4703,-1.50199 -8.71392,-3.48333 -12.22204,-5.89761c-0.18643,-0.1283 -2.51953,-1.72834 -2.59134,-1.80246c-1.54629,-1.59578 -1.61022,-3.10374 -2.59003,-4.79304c-0.68639,-1.18342 -1.1824,-0.91849 -2.61467,-1.70703c-1.35768,-0.74748 -1.36996,-1.5631 -3.10788,-1.44502c-3.6804,0.57207 -6.45742,3.51999 -8.74179,5.48511c-2.72876,2.34739 -4.97105,4.78564 -7.15973,7.39645c-0.65572,0.78219 -1.78311,1.34208 -2.45467,2.11787c-0.34592,0.39961 -0.23501,0.96042 -0.66817,1.3175c-1.06632,0.87899 -2.63411,1.40946 -3.80784,2.22103c0,0 -1.07524,0.73997 -2.15048,0c-1.07524,-0.73997 0,-1.47995 0,-1.47995c1.06523,-0.73002 2.52999,-1.16937 3.49113,-1.96488c0.38779,-0.32097 0.2347,-0.83676 0.54832,-1.19406c0.66405,-0.75653 1.77921,-1.29867 2.41131,-2.06806c3.17285,-3.86199 6.62029,-7.53578 11.18841,-10.67953c1.08326,-0.74549 2.6235,-2.2192 3.97552,-2.68224c0.92508,-0.31681 1.9976,-0.36439 2.9964,-0.54659c0.86415,0.02394 1.78498,-0.14136 2.59245,0.07182c0.71742,0.18942 1.15149,0.70072 1.70982,1.06403c1.69326,1.10186 3.55352,1.68814 4.57312,3.24675c0.98091,1.49948 0.89779,2.99282 2.27595,4.41598c0.59103,0.61034 1.52104,1.02766 2.27464,1.54628c3.51729,2.42057 7.75903,4.16638 12.10785,5.82298l1.46358,1.45258c0,0 0.84349,0.87073 -0.42175,1.45121z" fill="#8bba13" stroke-width="0.5"/><path d="M433.98272,53.12274c-1.07524,0.73997 -2.15048,0 -2.15048,0l-0.89046,-0.66651c-0.76632,-0.12407 -1.58164,-0.14899 -2.29896,-0.37222c-2.41773,-0.75238 -3.51955,-2.32699 -5.32605,-3.56579c-0.47684,-0.32699 -3.12085,-2.14579 -3.19959,-2.22103c-0.5298,-0.5064 -0.71874,-1.1528 -1.21649,-1.67437c-0.93997,-0.98494 -2.80186,-1.55923 -3.70941,-2.57327c-0.33623,-0.37569 -0.28103,-0.87634 -0.60825,-1.25577c-0.25879,-0.30009 -0.78161,-0.45171 -1.09894,-0.7239c-1.1872,-1.01833 -1.96197,-2.16924 -3.27296,-3.122c-1.75883,-0.44996 -1.75443,0.01331 -3.10249,0.75629c-0.53202,0.29322 -1.22883,0.43809 -1.71356,0.76788c-1.00458,0.68345 -1.45135,1.67508 -2.33227,2.43504c-1.25814,1.08539 -2.38323,2.26136 -3.64948,3.34874c-0.67568,0.58024 -1.77169,0.91852 -2.31543,1.56108c-0.29794,0.35209 -0.27028,0.8012 -0.53577,1.16538c-0.99015,1.35822 -2.70975,3.03061 -4.13678,4.17762c-0.63403,0.50961 -1.50146,0.87524 -2.07811,1.41619c-0.9127,0.85617 -1.51126,1.88131 -2.59134,2.63963c0,0 -1.07524,0.73997 -2.15048,0c-1.07524,-0.73997 0,-1.47995 0,-1.47995c0.98954,-0.66313 1.45628,-1.61777 2.27464,-2.38348c0.6237,-0.58358 1.53736,-0.99394 2.22285,-1.5437c1.28152,-1.02777 2.84336,-2.52512 3.72722,-3.74588c0.30789,-0.42526 0.31971,-0.94118 0.68073,-1.34616c0.45712,-0.51279 1.96153,-1.27992 2.55055,-1.78766c1.26447,-1.08997 2.38431,-2.26372 3.64948,-3.34874c0.55561,-0.47649 1.99842,-2.21624 2.53371,-2.58807c0.54933,-0.38158 1.32623,-0.57112 1.93592,-0.90649c1.56888,-0.86298 1.44885,-1.49297 4.00529,-1.49297c0.91798,0 1.74945,0.38325 2.62418,0.57488c1.67001,1.11534 2.59759,2.34321 4.02601,3.57548c0.39916,0.34434 1.00239,0.57373 1.33405,0.95047c0.33223,0.37738 0.28619,0.87424 0.60825,1.25577c0.79789,0.94524 2.68872,1.5322 3.58956,2.44983c0.50759,0.51706 0.69254,1.16511 1.21649,1.67437c0.78154,0.75963 1.92813,1.30563 2.88289,1.96488c1.30074,0.89814 2.63492,2.64291 4.40591,3.13169c0.82124,0.22665 1.71135,0.30998 2.56702,0.46497l1.54253,1.00787c0,0 1.07524,0.73997 0,1.47995z" fill="#8bba13" stroke-width="0.5"/><path d="M424.25076,56.47148c-1.07524,0.73997 -2.15048,0 -2.15048,0l-0.60825,-0.41859c-0.9495,-0.65864 -1.70125,-1.4397 -2.53371,-2.16948c-1.04664,-0.91753 -1.34359,-0.71056 -2.82934,-1.52853c-1.33338,-0.7341 -2.64473,-1.83711 -4.09312,-2.43066c-0.50869,-0.20846 -1.16498,-0.18495 -1.69339,-0.36872c-1.5176,-0.52776 -2.23247,-1.24156 -4.0067,-0.46848c-2.03543,0.88691 -3.05299,2.71996 -4.48946,3.95919c-1.25645,1.08393 -2.42581,2.09473 -3.56021,3.26577c0,0 -0.84349,0.87073 -2.10872,0.29024c-1.26523,-0.58049 -0.42175,-1.45121 -0.42175,-1.45121c1.1839,-1.22214 2.42042,-2.3011 3.73876,-3.43171c1.66184,-1.4252 2.82156,-3.44452 5.2425,-4.41266c1.24575,-0.49818 3.46264,-0.82095 4.88957,-0.52999c0.7774,0.15853 1.3257,0.65091 2.05218,0.89869c0.61858,0.21099 1.36507,0.22291 1.95609,0.46848c1.57047,0.65251 2.9823,1.79964 4.42235,2.59245c1.09131,0.60082 2.37151,1.07393 3.25314,1.8202c0.78749,0.66657 1.44543,1.41186 2.33227,2.01645l0.60825,0.41859c0,0 1.07524,0.73997 0,1.47995z" fill="#8bba13" stroke-width="0.5"/></g></g></svg>