<svg version="1.1" xmlns="http://www.w3.org/2000/svg" xmlns:xlink="http://www.w3.org/1999/xlink" width="59" height="22.5567" viewBox="0,0,59,22.5567"><g transform="translate(-23.20645,-324.36072)"><g data-paper-data="{&quot;isPaintingLayer&quot;:true}" fill="#ffffff" fill-rule="nonzero" stroke="none" stroke-linecap="butt" stroke-linejoin="miter" stroke-miterlimit="10" stroke-dasharray="" stroke-dashoffset="0" style="mix-blend-mode: normal"><path d="M23.20645,346.91742v-22.5567h59v22.5567z" stroke-width="0"/><path d="M72.47449,334.18066c-1.38322,0 -1.5082,-0.40225 -1.5195,-0.47494c-1.96092,-0.59315 -4.07125,-1.02504 -6.16754,-1.58848c-1.05204,-0.28276 -1.69789,-0.69152 -2.59476,-1.02448c-1.20764,-0.44834 -2.95148,-0.72259 -4.2205,-1.15325c-1.03126,-0.34997 -1.4109,-0.84947 -2.06989,-1.28166c-0.81169,-0.53234 -2.29626,-0.82149 -3.44663,-1.26163c-1.3542,-0.51812 -2.08933,-0.80615 -4.33742,-0.83628c-1.30433,0.51138 -2.87062,1.06986 -4.48384,1.48245c-0.53224,0.13612 -1.23159,0.20263 -1.71356,0.35671c-0.48196,0.15408 -0.68998,0.37766 -1.11578,0.54782c-1.06899,0.42719 -2.57913,0.74087 -3.64948,1.16672c-0.98187,0.39065 -1.4838,0.88376 -2.31543,1.30855c-1.27674,0.65215 -2.49346,1.21649 -3.57701,1.90255c-1.35746,0.8595 -1.44997,1.75636 -3.142,2.58398c0,0 -0.84349,0.40449 -2.10872,0.13483c-1.26523,-0.26966 -0.42175,-0.67415 -0.42175,-0.67415c2.28284,-1.06782 2.75085,-2.51178 4.78428,-3.65059c4.26915,-2.39091 10.244,-4.22563 16.57945,-6.05714c1.14027,-0.00645 2.32222,-0.11724 3.42081,-0.01937c3.24339,0.28896 2.79889,0.51669 4.40672,1.12763c1.35598,0.51524 2.85111,0.83391 3.85234,1.46073c0.55326,0.34637 0.72243,0.77582 1.57959,1.05179c1.33019,0.42826 3.05383,0.72544 4.29497,1.1802c0.80343,0.29439 1.32838,0.67151 2.27122,0.92006c2.32035,0.61171 4.6361,1.09151 6.76965,1.77359l0.44538,0.53821c0,0 0,0.48614 -1.52062,0.48614z" stroke-width="0.5"/><path d="M76.96746,339.15483c-1.26523,0.26966 -2.10872,-0.13483 -2.10872,-0.13483l-0.96941,-0.49194c-4.4703,-0.69774 -8.71392,-1.61816 -12.22204,-2.73969c-0.18643,-0.0596 -2.51953,-0.80289 -2.59134,-0.83732c-1.54629,-0.74131 -1.61022,-1.44182 -2.59003,-2.22658c-0.68639,-0.54975 -1.1824,-0.42668 -2.61467,-0.79299c-1.35768,-0.34723 -1.36996,-0.72613 -3.10788,-0.67127c-3.6804,0.26575 -6.45742,1.63519 -8.74179,2.54807c-2.72876,1.09047 -4.97105,2.22314 -7.15973,3.43598c-0.65572,0.36336 -1.78311,0.62345 -2.45467,0.98384c-0.34592,0.18563 -0.23501,0.44616 -0.66817,0.61204c-1.06632,0.40833 -2.63411,0.65475 -3.80784,1.03177c0,0 -1.07524,0.34375 -2.15048,0c-1.07524,-0.34375 0,-0.6875 0,-0.6875c1.06523,-0.33913 2.52999,-0.54322 3.49113,-0.91277c0.38779,-0.1491 0.2347,-0.38871 0.54832,-0.55469c0.66405,-0.35144 1.77921,-0.60329 2.41131,-0.9607c3.17285,-1.79406 6.62029,-3.50069 11.18841,-4.9611c1.08326,-0.34631 2.6235,-1.03092 3.97552,-1.24601c0.92508,-0.14717 1.9976,-0.16928 2.9964,-0.25391c0.86415,0.01112 1.78498,-0.06567 2.59245,0.03336c0.71742,0.08799 1.15149,0.32551 1.70982,0.49429c1.69326,0.51187 3.55352,0.78422 4.57312,1.50826c0.98091,0.69657 0.89779,1.39029 2.27595,2.05142c0.59103,0.28353 1.52104,0.47739 2.27464,0.71832c3.51729,1.12446 7.75903,1.93547 12.10785,2.70503l1.46358,0.67478c0,0 0.84349,0.40449 -0.42175,0.67415z" stroke-width="0.5"/><path d="M75.98272,343.76099c-1.07524,0.34375 -2.15048,0 -2.15048,0l-0.89046,-0.30962c-0.76632,-0.05763 -1.58164,-0.06921 -2.29896,-0.17291c-2.41773,-0.34952 -3.51955,-1.08099 -5.32605,-1.65646c-0.47684,-0.1519 -3.12085,-0.99681 -3.19959,-1.03177c-0.5298,-0.23524 -0.71874,-0.53553 -1.21649,-0.77782c-0.93997,-0.45755 -2.80186,-0.72433 -3.70941,-1.1954c-0.33623,-0.17453 -0.28103,-0.40709 -0.60825,-0.58336c-0.25879,-0.13941 -0.78161,-0.20984 -1.09894,-0.33628c-1.1872,-0.47306 -1.96197,-1.00771 -3.27296,-1.45031c-1.75883,-0.20902 -1.75443,0.00618 -3.10249,0.35133c-0.53202,0.13621 -1.22883,0.20352 -1.71356,0.35671c-1.00458,0.31749 -1.45135,0.77815 -2.33227,1.13118c-1.25814,0.50421 -2.38323,1.0505 -3.64948,1.55563c-0.67568,0.26955 -1.77169,0.4267 -2.31543,0.72519c-0.29794,0.16356 -0.27028,0.37219 -0.53577,0.54137c-0.99015,0.63095 -2.70975,1.40785 -4.13678,1.94069c-0.63403,0.23674 -1.50146,0.40659 -2.07811,0.65788c-0.9127,0.39773 -1.51126,0.87395 -2.59134,1.22623c0,0 -1.07524,0.34375 -2.15048,0c-1.07524,-0.34375 0,-0.6875 0,-0.6875c0.98954,-0.30805 1.45628,-0.75152 2.27464,-1.10723c0.6237,-0.2711 1.53736,-0.46173 2.22285,-0.71712c1.28152,-0.47745 2.84336,-1.17303 3.72722,-1.74012c0.30789,-0.19755 0.31971,-0.43722 0.68073,-0.62535c0.45712,-0.23822 1.96153,-0.59458 2.55055,-0.83045c1.26447,-0.50634 2.38431,-1.0516 3.64948,-1.55563c0.55561,-0.22135 1.99842,-1.02954 2.53371,-1.20227c0.54933,-0.17726 1.32623,-0.26531 1.93592,-0.42111c1.56888,-0.40089 1.44885,-0.69355 4.00529,-0.69355c0.91798,0 1.74945,0.17804 2.62418,0.26706c1.67001,0.51812 2.59759,1.08852 4.02601,1.66096c0.39916,0.15996 1.00239,0.26652 1.33405,0.44154c0.33223,0.17531 0.28619,0.40613 0.60825,0.58336c0.79789,0.43911 2.68872,0.71177 3.58956,1.13805c0.50759,0.2402 0.69254,0.54124 1.21649,0.77782c0.78154,0.35288 1.92813,0.60652 2.88289,0.91277c1.30074,0.41723 2.63492,1.22775 4.40591,1.45481c0.82124,0.10529 1.71135,0.144 2.56702,0.216l1.54253,0.46819c0,0 1.07524,0.34375 0,0.6875z" stroke-width="0.5"/><path d="M66.25076,345.31663c-1.07524,0.34375 -2.15048,0 -2.15048,0l-0.60825,-0.19446c-0.9495,-0.30597 -1.70125,-0.6688 -2.53371,-1.00782c-1.04664,-0.42623 -1.34359,-0.33008 -2.82934,-0.71007c-1.33338,-0.34102 -2.64473,-0.85342 -4.09312,-1.12914c-0.50869,-0.09684 -1.16498,-0.08592 -1.69339,-0.17128c-1.5176,-0.24517 -2.23247,-0.57676 -4.0067,-0.21763c-2.03543,0.41201 -3.05299,1.26354 -4.48946,1.83922c-1.25645,0.50353 -2.42581,0.97309 -3.56021,1.51709c0,0 -0.84349,0.40449 -2.10872,0.13483c-1.26523,-0.26966 -0.42175,-0.67415 -0.42175,-0.67415c1.1839,-0.56773 2.42042,-1.06896 3.73876,-1.59418c1.66184,-0.66206 2.82156,-1.60013 5.2425,-2.04987c1.24575,-0.23142 3.46264,-0.38137 4.88957,-0.2462c0.7774,0.07364 1.3257,0.30237 2.05218,0.41748c0.61858,0.09801 1.36507,0.10355 1.95609,0.21763c1.57047,0.30312 2.9823,0.83601 4.42235,1.20431c1.09131,0.27911 2.37151,0.49889 3.25314,0.84556c0.78749,0.30965 1.44543,0.65587 2.33227,0.93673l0.60825,0.19446c0,0 1.07524,0.34375 0,0.6875z" stroke-width="0.5"/></g></g></svg>