<svg version="1.1" xmlns="http://www.w3.org/2000/svg" xmlns:xlink="http://www.w3.org/1999/xlink" width="55.04164" height="44.5567" viewBox="0,0,55.04164,44.5567"><g transform="translate(1.60359,-259.36072)"><g data-paper-data="{&quot;isPaintingLayer&quot;:true}" fill-rule="nonzero" stroke="none" stroke-linecap="butt" stroke-linejoin="miter" stroke-miterlimit="10" stroke-dasharray="" stroke-dashoffset="0" style="mix-blend-mode: normal"><path d="M9.45323,293.46953c0,2.5 -2.5,2.5 -2.5,2.5l-1.81626,-1.29733c-0.93233,0.62582 -1.86466,1.25163 -2.79699,1.87745c0,0 -2.08013,1.38675 -3.46688,-0.69338c-1.38675,-2.08013 0.69338,-3.46688 0.69338,-3.46688c0.91699,-0.60654 1.83397,-1.21308 2.75096,-1.81961l1.86803,-1.86803c0.45241,-0.45241 1.07741,-0.73223 1.76777,-0.73223c1.38071,0 2.5,1.11929 2.5,2.5v0.95588c0.53143,0.34804 1,0.9618 1,2.04412z" fill="#fff3e2" stroke-width="0.5"/><path d="M17.20645,303.91742v-44.5567h36.2316v44.5567z" fill="#aebb8d" stroke-width="0"/><path d="M47.4617,278.75825c-0.84943,0 -0.92618,-0.79458 -0.93312,-0.93817c-1.20419,-1.17166 -2.50013,-2.02479 -3.78745,-3.13775c-0.64605,-0.55854 -1.04267,-1.36596 -1.59343,-2.02368c-0.74161,-0.88561 -1.81249,-1.42735 -2.59179,-2.27804c-0.63329,-0.69129 -0.86643,-1.67798 -1.27111,-2.5317c-0.49845,-1.05154 -1.41012,-1.62272 -2.11656,-2.49211c-0.83161,-1.02345 -1.28305,-1.59241 -2.66359,-1.65192c-0.80098,1.01013 -1.76283,2.11332 -2.7535,2.92832c-0.32685,0.26888 -0.75631,0.40025 -1.05229,0.70462c-0.29597,0.30436 -0.42371,0.746 -0.68519,1.08212c-0.65646,0.84383 -1.58383,1.46346 -2.24113,2.30465c-0.60296,0.77165 -0.91119,1.7457 -1.42189,2.58482c-0.78404,1.28822 -1.53122,2.40295 -2.19662,3.75814c-0.83361,1.69778 -0.89042,3.46937 -1.92949,5.1042c0,0 -0.51798,0.799 -1.29495,0.26633c-0.77697,-0.53267 -0.25899,-1.33166 -0.25899,-1.33166c1.40188,-2.10929 1.68928,-4.96157 2.938,-7.2111c2.62166,-4.72281 6.29079,-8.34698 10.18136,-11.96479c0.70023,-0.01275 1.42606,-0.23159 2.1007,-0.03826c1.99175,0.57079 1.71878,1.02063 2.70614,2.22743c0.8327,1.01776 1.75085,1.64725 2.3657,2.88542c0.33975,0.68419 0.44364,1.53249 0.97002,2.07762c0.81686,0.84595 1.87534,1.43297 2.63752,2.33128c0.49338,0.5815 0.81575,1.32644 1.39474,1.81741c1.42492,1.20832 2.84701,2.15608 4.15721,3.50342l0.27351,1.06313c0,0 0,0.96027 -0.9338,0.96027z" fill="#8bba13" stroke-width="0.5"/><path d="M50.22081,288.58382c-0.77697,0.53267 -1.29495,-0.26633 -1.29495,-0.26633l-0.59531,-0.97175c-2.74519,-1.37826 -5.35117,-3.19638 -7.50549,-5.41177c-0.11449,-0.11773 -1.54723,-1.58596 -1.59133,-1.65397c-0.94957,-1.46432 -0.98883,-2.84806 -1.59052,-4.3982c-0.42151,-1.08593 -0.72611,-0.84283 -1.60566,-1.56641c-0.83374,-0.6859 -0.84129,-1.43434 -1.90853,-1.32598c-2.26011,0.52495 -3.96547,3.23002 -5.36829,5.03326c-1.67572,2.15402 -3.0527,4.39141 -4.39675,6.78715c-0.40267,0.71775 -1.095,1.23152 -1.5074,1.9434c-0.21243,0.36669 -0.14432,0.88131 -0.41032,1.20897c-0.65482,0.80658 -1.61759,1.29335 -2.33838,2.03807c0,0 -0.6603,0.67902 -1.3206,0c-0.6603,-0.67902 0,-1.35803 0,-1.35803c0.65415,-0.66989 1.55365,-1.07304 2.14389,-1.80302c0.23814,-0.29453 0.14413,-0.76783 0.33672,-1.09569c0.40779,-0.69421 1.0926,-1.19169 1.48077,-1.89769c1.94843,-3.54385 4.06549,-6.915 6.87075,-9.79977c0.66522,-0.68408 1.61108,-2.03639 2.44135,-2.46128c0.56809,-0.29071 1.22672,-0.33437 1.84007,-0.50156c0.53067,0.02197 1.09615,-0.12972 1.59201,0.0659c0.44056,0.17381 0.70712,0.64299 1.04999,0.97638c1.03982,1.01109 2.1822,1.54908 2.80833,2.97929c0.60237,1.37595 0.55133,2.74628 1.39765,4.0522c0.36295,0.56006 0.93406,0.943 1.39684,1.4189c2.15995,2.22117 4.76478,3.82316 7.43537,5.3433l0.89878,1.33292c0,0 0.51798,0.799 -0.25899,1.33166z" fill="#8bba13" stroke-width="0.5"/><path d="M49.61609,297.68247c-0.6603,0.67902 -1.3206,0 -1.3206,0l-0.54683,-0.6116c-0.47059,-0.11385 -0.97128,-0.13672 -1.41178,-0.34156c-1.48472,-0.6904 -2.16134,-2.1353 -3.2707,-3.27205c-0.29283,-0.30005 -1.9165,-1.96902 -1.96485,-2.03807c-0.32535,-0.46468 -0.44137,-1.05783 -0.74704,-1.53644c-0.57723,-0.9038 -1.72061,-1.43079 -2.27793,-2.36129c-0.20648,-0.34474 -0.17258,-0.80414 -0.37352,-1.15232c-0.15892,-0.27537 -0.47998,-0.4145 -0.67485,-0.66427c-0.72905,-0.93444 -1.20484,-1.99055 -2.00991,-2.86482c-1.08009,-0.41289 -1.07739,0.01221 -1.90522,0.69399c-0.32671,0.26907 -0.75462,0.402 -1.05229,0.70462c-0.61691,0.62714 -0.89127,1.53709 -1.43224,2.23445c-0.77262,0.99598 -1.46353,2.07508 -2.24113,3.07288c-0.41493,0.53244 -1.08799,0.84286 -1.42189,1.43248c-0.18296,0.32308 -0.16598,0.7352 -0.32901,1.06938c-0.60805,1.24634 -1.66404,2.78095 -2.54038,3.83348c-0.38935,0.46763 -0.92204,0.80314 -1.27616,1.29953c-0.56048,0.78564 -0.92806,1.72633 -1.59133,2.42219c0,0 -0.6603,0.67902 -1.3206,0c-0.6603,-0.67902 0,-1.35803 0,-1.35803c0.60767,-0.6085 0.89429,-1.4845 1.39684,-2.18713c0.38301,-0.5355 0.94408,-0.91206 1.36504,-1.41653c0.78697,-0.94311 1.74609,-2.3171 2.28887,-3.4373c0.18907,-0.39023 0.19633,-0.86365 0.41803,-1.23527c0.28072,-0.47055 1.20457,-1.17449 1.56628,-1.64039c0.7765,-1.00018 1.46419,-2.07724 2.24113,-3.07288c0.3412,-0.43724 1.22722,-2.03367 1.55594,-2.37487c0.33734,-0.35014 0.81443,-0.52407 1.18884,-0.83182c0.96344,-0.79189 0.88973,-1.36998 2.45963,-1.36998c0.56373,0 1.07433,0.35168 1.6115,0.52753c1.02554,1.02346 1.59517,2.15018 2.47235,3.28094c0.24512,0.31598 0.61556,0.52647 0.81923,0.87217c0.20402,0.34629 0.17575,0.80222 0.37352,1.15232c0.48998,0.86737 1.65113,1.40598 2.20433,2.24802c0.31171,0.47447 0.42529,1.06913 0.74704,1.53644c0.47994,0.69705 1.18405,1.19807 1.77037,1.80302c0.79878,0.82415 1.61809,2.4252 2.70565,2.87371c0.50432,0.20798 1.05093,0.28444 1.57639,0.42667l0.94726,0.92484c0,0 0.6603,0.67902 0,1.35803z" fill="#8bba13" stroke-width="0.5"/><path d="M51.63974,301.75535c-0.6603,0.67902 -1.3206,0 -1.3206,0l-0.37352,-0.38411c-0.58308,-0.60439 -1.04473,-1.3211 -1.55594,-1.99076c-0.64274,-0.84195 -0.82509,-0.65202 -1.73748,-1.40262c-0.81882,-0.67363 -1.62412,-1.68577 -2.51356,-2.23042c-0.31238,-0.19129 -0.71541,-0.16972 -1.0399,-0.33834c-0.93195,-0.48429 -1.37095,-1.13929 -2.46049,-0.42988c-1.24995,0.81385 -1.87483,2.4959 -2.75695,3.63304c-0.77158,0.99464 -1.48968,1.92217 -2.18631,2.99674c0,0 -0.51798,0.799 -1.29495,0.26633c-0.77697,-0.53267 -0.25899,-1.33166 -0.25899,-1.33166c0.72703,-1.12146 1.48637,-2.11154 2.29595,-3.14901c1.02053,-1.30779 1.73271,-3.16076 3.21939,-4.04915c0.76501,-0.45714 2.12639,-0.75332 3.00266,-0.48633c0.4774,0.14547 0.81411,0.59729 1.26023,0.82466c0.37987,0.19361 0.83828,0.20454 1.20122,0.42988c0.96442,0.59875 1.83142,1.65139 2.71574,2.37889c0.67017,0.55133 1.45633,0.98546 1.99774,1.67026c0.48359,0.61166 0.88763,1.29555 1.43224,1.85034l0.37352,0.38411c0,0 0.6603,0.67902 0,1.35803z" fill="#8bba13" stroke-width="0.5"/></g></g></svg>