<svg version="1.1" xmlns="http://www.w3.org/2000/svg" xmlns:xlink="http://www.w3.org/1999/xlink" width="66.04152" height="111.91877" viewBox="0,0,66.04152,111.91877"><g transform="translate(-209.44612,-124.04062)"><g data-paper-data="{&quot;isPaintingLayer&quot;:true}" fill-rule="nonzero" stroke="none" stroke-width="0.5" stroke-linecap="butt" stroke-linejoin="miter" stroke-miterlimit="10" stroke-dasharray="" stroke-dashoffset="0" style="mix-blend-mode: normal"><path d="M242.61148,145.87624c0,2.5 -2.5,2.5 -2.5,2.5l-2.17945,-0.02513c-0.85208,-0.12172 -1.70416,-0.24345 -2.55624,-0.36517c0,0 -2.47487,-0.35356 -2.12132,-2.82843c0.35356,-2.47487 2.82842,-2.12132 2.82842,-2.12132c0.85208,0.12172 1.70417,0.24346 2.55625,0.36518l1.47234,-0.02513c0,0 2.5,0 2.5,2.5z" fill="#80e88a"/><path d="M238.28689,125.84956c1.76776,-1.76776 3.53554,0 3.53554,0c3.70079,3.73277 8.0596,10.21952 4.3442,15.54798c-3.75593,5.3866 -13.8921,4.39108 -17.03092,-1.19187c-3.02289,-5.37674 2.69308,-12.64657 8.39086,-12.3253c-0.09171,-0.59859 0.04422,-1.31471 0.76032,-2.03081z" data-paper-data="{&quot;index&quot;:null}" fill="#8dff99"/><path d="M243.70644,133.40393l-0.42027,-0.0193c-3.48334,0.4353 -7.32566,1.13287 -9.40188,-1.12274l-2.05537,1.16174c-0.37195,0.21953 -0.80571,0.34549 -1.26889,0.34549c-1.38071,0 -2.5,-1.11929 -2.5,-2.5c0,-0.88153 0.45625,-1.6565 1.14551,-2.10163l2.15881,-1.43921l0.10387,0.15581l0.13416,-0.07583c0.1848,-0.16086 0.38246,-0.30782 0.5957,-0.43792c0.44974,-0.2744 0.84359,-0.45926 1.19309,-0.57167c1.96752,-0.92208 3.73624,-2.64587 5.90561,-2.75396c3.36277,-0.16755 2.5778,4.88144 4.84881,2.22286c0,0 2.08013,-1.38675 3.46688,0.69338c1.38675,2.08013 -0.69338,3.46688 -0.69338,3.46688c-0.243,0.13077 -0.47913,0.28955 -0.71268,0.45879c0.00002,0.00576 0.00004,0.01154 0.00004,0.01733c0,2.5 -2.5,2.5 -2.5,2.5z" data-paper-data="{&quot;index&quot;:null}" fill="#5aa562"/><path d="M236.36147,197.69885c0.42355,-0.10067 0.8471,-0.20135 1.27065,-0.30202c0.49716,-0.65609 1.11204,-0.45887 1.37722,-0.32734c0.65378,-0.15539 1.30757,-0.31079 1.96135,-0.46618l0.01439,-0.00042c0.27291,-0.46581 0.65418,-0.75507 1.07605,-0.75507c0.25237,0 0.49021,0.10352 0.69902,0.28643l1.72886,1.43822l-0.03003,0.09993c0.07924,0.03293 0.15813,0.06884 0.23664,0.10804c1.15953,0.57893 1.73676,2.85449 2.7647,3.91843c2.62381,2.7157 7.06756,3.25176 8.81387,7.71155c1.36396,3.48331 1.328,8.27632 2.31263,12.05437l0.48336,2.38529c0,0 0.18715,0.93414 -0.02582,1.82532c0.20494,0.03302 0.36356,0.05006 0.42995,0.06874c0.5927,1.17437 1.5302,2.04613 1.77809,3.52311c1.38315,8.24122 -4.4639,6.24467 -7.34497,6.38013c-1.20424,0.05662 -2.45562,0.62435 -3.61391,0.07323c-1.71664,-0.81679 -1.68407,-3.25452 -2.57987,-5.09188c-1.27218,-2.60936 -4.12438,-5.33955 -5.92067,-6.54483c-1.59684,-1.07144 -3.45856,1.35067 -4.75345,2.41663c-2.92645,2.40907 -6.87742,3.48785 -10.08876,4.256c-2.82656,0.9409 -6.3615,3.00196 -9.2491,1.38933c-1.8625,-1.04014 -3.23379,-4.28591 -4.15648,-6.98077c-0.50728,-1.4816 -2.05499,-6.22511 -1.31848,-7.98283c3.03209,-7.23619 6.59136,3.13756 9.34239,3.50849c0.29518,0.0398 0.56697,-0.02509 0.8206,-0.16462c-0.03169,-0.20211 -0.04855,-0.41418 -0.04855,-0.63281c0,-0.90945 0.29188,-1.70549 0.72828,-2.14294l1.73384,-1.80295l0.00404,0.01078c0.00706,-0.01218 0.01415,-0.02435 0.02125,-0.0365c0.75052,-1.28465 1.80252,-2.00367 2.56191,-3.27383c1.51246,-2.52976 2.60031,-5.4132 4.26671,-7.57796c0.28181,-1.03984 0.69487,-2.75969 0.78385,-3.60589c0.14838,-1.41109 -0.4474,-3.53603 0.292,-4.27c1.16511,-1.15657 2.44592,-0.64174 3.4088,0.59376c0.13096,-0.06789 0.21965,-0.08897 0.21965,-0.08897z" fill="#2527e8"/><path d="M235.2211,145.96756c0.26867,0.12586 0.43991,0.27074 0.43991,0.27074c0.89103,0.76101 2.80015,2.89744 4.09134,2.24364c0.6424,-0.32529 1.05794,-1.2356 1.72646,-1.46071c0.92113,-0.31017 1.91252,-0.23195 2.85828,-0.0831c3.86006,0.60751 6.12023,5.37125 9.86155,6.22398c4.57589,1.04296 9.07908,-2.93023 13.56857,-1.81495c1.77198,0.44019 3.15041,1.84946 4.59348,3.07184c0.61535,0.80193 1.38734,1.44971 1.84606,2.40578c1.54824,3.22688 2.10934,8.41796 -0.73043,10.99147c-1.23666,1.12072 -2.83196,1.40027 -4.25609,2.07305c-0.39581,0.18698 -7.49826,3.41982 -7.72786,3.48499c-1.57204,0.44623 -3.18261,-0.0543 -4.72812,-0.29989c-0.81561,-0.1296 -1.65323,-0.09543 -2.45054,-0.3491c-0.25088,-0.07982 -0.51221,-0.93001 -0.6016,-0.62198c-0.14238,0.49066 0.37365,0.98468 0.34497,1.50628c-0.11597,2.10978 -0.8573,4.09282 -1.14639,6.17566c-0.61011,4.39581 -0.74927,9.88577 -2.50162,13.88862c-1.2112,2.7667 -2.22532,3.18124 -4.20344,4.81825c-6.61174,1.34289 -13.95702,1.26495 -16.65858,-8.07109c-1.329,-4.59277 -5.07554,-34.09178 -3.75077,-36.65996c1.59334,-2.42812 2.99608,-4.27453 5.06335,-6.03943l1.98821,-1.80273c0,0 1.28303,-1.16307 2.37326,0.04865z" fill="#d7e824"/><path d="M228.46768,160.13577c0.70973,1.70208 0.79877,3.71562 1.19816,5.57344l0.77093,3.91356c0,0 0.35929,1.82391 -0.79157,2.7038c0.06728,0.45778 0.02018,1.00273 -0.2431,1.63167c-0.92418,2.20779 -2.66382,1.0349 -2.66382,1.0349c-4.77774,-3.22122 -11.2157,-6.20011 -14.90305,-11.45726c-2.4721,-3.52453 -4.15852,-8.8594 0.84848,-10.74916c2.13561,-0.80603 5.32093,2.43144 7.11124,3.4528c1.66055,0.94734 3.27881,0.51194 4.99924,0.1942l1.33097,-0.34176c0,0 1.93163,-0.49029 2.31796,1.96116c0.11551,0.73297 0.0238,1.29061 -0.16154,1.71225c0.06901,0.11653 0.13153,0.23952 0.18611,0.3704z" fill="#d7e824"/></g></g></svg>